<svg width="66" height="25" viewBox="0 0 66 25" fill="none" xmlns="http://www.w3.org/2000/svg">
<path d="M6.22282 10.921C6.29831 10.2776 6.41154 9.47808 6.56251 8.52245L6.7465 7.33027L6.94465 6.13809L6.95881 5.99616C7.0626 6.53548 7.1428 6.98965 7.19942 7.35865C7.31264 8.10613 7.44474 9.07596 7.59571 10.2681L7.76556 11.73L7.94955 13.1918C8.0156 13.7217 8.10996 14.3367 8.23262 15.0368C7.84576 15.0463 7.39756 15.0274 6.88804 14.9801L6.22282 14.9091L5.54345 14.824C5.86427 13.2249 6.09072 11.9239 6.22282 10.921ZM2.72691 23.4105L3.17982 23.4247C3.57612 23.4436 3.88278 23.4483 4.0998 23.4389L4.11395 23.1976C4.11395 23.103 4.11867 23.0273 4.1281 22.9705L4.17056 22.8286L4.21302 22.7009C4.25077 22.5873 4.27436 22.4974 4.28379 22.4312L4.32625 22.0338L4.35456 21.6364L4.46779 20.8274L4.58102 20.0185C4.68481 19.271 4.83106 18.4005 5.01977 17.407C6.6144 17.53 7.84104 17.601 8.69969 17.6199C8.98276 19.1622 9.18091 20.3591 9.29414 21.2106L9.32244 21.4945L9.3649 21.7783C9.40265 21.996 9.42152 22.1852 9.42152 22.346V22.6015V22.8428C9.41208 23.0509 9.42152 23.2212 9.44982 23.3537C9.60079 23.3632 9.78951 23.3584 10.016 23.3395L10.5821 23.3111H11.1907L11.7993 23.3253C12.3277 23.3443 12.7334 23.3443 13.0165 23.3253L13.3845 23.2969C13.5355 23.278 13.6581 23.2638 13.7525 23.2544C13.7619 23.2071 13.7478 23.1361 13.71 23.0415L13.6676 22.9421L13.6251 22.8428L13.5543 22.5305L13.4836 22.2325L13.2005 20.9694C13.0307 20.1935 12.8514 19.3514 12.6627 18.4431C12.3419 16.8157 12.021 15.1173 11.7002 13.3479L11.219 10.4952C11.0586 9.52066 10.8133 8.23859 10.483 6.64902L10.0867 4.73302L9.71874 2.81702C9.69987 2.7224 9.68572 2.61359 9.67628 2.49059L9.63382 2.13578C9.60551 1.833 9.57721 1.61065 9.5489 1.46872C9.44511 0.976715 9.22337 0.721248 8.88368 0.702325C8.51569 0.683401 8.04863 0.683401 7.48249 0.702325L6.77481 0.73071L6.08129 0.744902C6.04355 0.744902 5.89729 0.735441 5.64253 0.716517C5.50099 0.707055 5.38305 0.702325 5.28869 0.702325L4.90655 0.673939C4.22718 0.645554 3.86862 0.67867 3.83088 0.773288C3.73652 2.41963 3.46289 4.53906 3.00998 7.13157L2.72691 8.70695L2.44384 10.2681C2.23625 11.4887 2.07584 12.5437 1.96262 13.4331C1.89657 14.0008 1.80693 14.6395 1.6937 15.3491L1.38232 17.2509C1.10869 18.9162 0.915256 20.184 0.802028 21.0545L0.731261 21.6364L0.64634 22.2325C0.58029 22.6961 0.542547 23.0888 0.533112 23.4105C0.769003 23.4483 1.05679 23.4625 1.39648 23.4531L1.83523 23.4247L2.27399 23.4105H2.72691Z" fill="white"/>
<path d="M19.6545 20.0752C19.6262 19.2047 19.5837 18.2491 19.5271 17.2083L19.4422 15.8032L19.3856 15.0794L19.3431 14.3414C21.1548 14.3603 22.3531 14.6442 22.9381 15.193C23.6458 15.8648 23.7166 16.9197 23.1504 18.3579C22.5937 19.7866 21.4284 20.3591 19.6545 20.0752ZM22.3578 6.43613C22.5277 7.18361 22.4286 7.92636 22.0606 8.66437C21.8247 9.16584 21.4048 9.5112 20.8009 9.70043C20.565 9.77613 20.2867 9.83763 19.9659 9.88494L19.5413 9.92751L19.1167 9.97009C19.1167 9.62947 19.1025 9.21788 19.0742 8.73534L18.9893 7.458C18.9327 6.39829 18.9138 5.55619 18.9327 4.93172L19.4422 4.90333L19.9376 4.88914C21.3624 5.10676 22.1691 5.62243 22.3578 6.43613ZM25.9811 9.30304C26.1132 8.67857 26.1981 7.95001 26.2359 7.11738C26.2453 6.8146 26.25 6.5071 26.25 6.19486C26.2406 5.95832 26.2359 5.73597 26.2359 5.52781C26.1227 3.01099 24.7922 1.48292 22.2446 0.943599C21.3576 0.763826 20.2065 0.67867 18.7911 0.688132L17.9278 0.716517L17.0644 0.73071C16.3662 0.759095 15.8425 0.773288 15.4934 0.773288C15.4273 1.74785 15.4085 2.96368 15.4368 4.42079C15.4556 4.87495 15.4792 5.49469 15.5075 6.28002L15.5358 7.18834L15.5641 8.06828C15.5924 9.17531 15.6113 10.4526 15.6208 11.9003L15.6349 13.8021L15.6491 15.6897C15.6585 18.8215 15.7151 21.3526 15.8189 23.2827C16.1963 23.2733 16.6492 23.2827 17.1776 23.3111L17.8853 23.3537L18.593 23.3963C19.7725 23.4625 20.716 23.472 21.4237 23.4247C23.5845 23.2827 25.2074 22.5305 26.2925 21.1681C26.9247 20.3827 27.2691 19.4366 27.3257 18.3295C27.3729 17.4874 27.2408 16.4656 26.9294 15.2639C26.7218 14.4691 26.3397 13.7264 25.783 13.0357C25.1697 12.2693 24.5092 11.8009 23.8015 11.6306C24.8866 11.8956 25.6131 11.1197 25.9811 9.30304Z" fill="white"/>
<path d="M36.0726 10.5946C36.0726 11.5691 36.0348 12.7376 35.9594 14.1001C35.9122 15.0085 35.832 16.1723 35.7187 17.5915L35.6904 18.1592L35.6621 18.7269C35.6244 19.1527 35.5583 19.4839 35.464 19.7204C35.2281 20.3543 34.6997 20.572 33.8788 20.3733C32.8503 20.1367 32.2653 19.4271 32.1237 18.2444C32.0766 17.8564 32.0719 17.3266 32.1096 16.6548L32.1379 16.2574L32.1662 15.86C32.1851 15.5572 32.1945 15.3065 32.1945 15.1078C32.1945 14.8334 32.1992 14.4928 32.2087 14.0859V12.9789C32.2087 12.0138 32.2087 11.3042 32.2087 10.85C32.2181 10.5567 32.1898 10.0411 32.1237 9.30304L32.0813 8.84888L32.053 8.39471C32.0247 8.04463 32.0105 7.73239 32.0105 7.458C31.9633 5.9252 32.1898 4.86076 32.6899 4.26467C33.1145 3.74427 33.7372 3.626 34.5582 3.90985C35.2281 4.13693 35.6668 4.51067 35.8744 5.03107C36.1292 5.665 36.2424 6.57333 36.2141 7.75605L36.1858 8.50825L36.1292 9.23208C36.1009 9.83763 36.082 10.2918 36.0726 10.5946ZM38.2947 1.75258C37.9361 1.19433 37.436 0.811134 36.7944 0.602976C36.3509 0.46105 35.7235 0.375895 34.912 0.34751C33.8175 0.319124 32.8928 0.413742 32.1379 0.631362C31.1188 0.924675 30.3451 1.45926 29.8167 2.23513C29.3921 2.85014 29.1562 3.81523 29.1091 5.13042C29.0902 5.52781 29.0902 6.07659 29.1091 6.77676V7.17415L29.1232 7.54316C29.1232 7.81755 29.1185 8.04936 29.1091 8.23859V8.25279L29.0807 9.24627L29.0383 10.2398L28.9817 12.2125C28.9439 13.7169 28.9486 15.0368 28.9958 16.1723L29.0666 17.3361L29.1374 18.4857C29.2034 19.4224 29.2364 20.1888 29.2364 20.7849C29.2364 21.5323 29.5431 22.1947 30.1564 22.7718C30.6754 23.2544 31.3217 23.5997 32.0954 23.8079C32.9635 24.0539 33.8033 24.1816 34.6148 24.1911C35.53 24.2005 36.3604 23.9971 37.1058 23.5808C37.9833 23.1077 38.5164 22.4454 38.7051 21.5938C38.8467 20.9504 38.9646 19.9948 39.059 18.7269C39.0873 18.3579 39.125 17.7618 39.1722 16.9387L39.2005 16.4561L39.2288 15.9736C39.2477 15.6046 39.2666 15.2687 39.2854 14.9659C39.3703 13.6886 39.3987 12.2646 39.3703 10.6939C39.3609 10.0978 39.342 9.3882 39.3137 8.56502L39.2571 7.50058L39.2147 6.40775V6.13809L39.2005 5.84005L39.158 5.24396C39.1297 4.78033 39.0873 4.36402 39.0307 3.99501C38.8891 3.03937 38.6438 2.2919 38.2947 1.75258Z" fill="white"/>
<path d="M53.2408 5.84005V4.67625C53.2502 3.65439 53.2314 2.88325 53.1842 2.36286L53.17 1.93708V1.5113C53.1795 1.15176 53.17 0.872636 53.1417 0.673939H49.6741C49.7402 1.13756 49.7449 2.59467 49.6883 5.04526C49.6788 5.42373 49.6694 5.88735 49.6599 6.43613L49.6458 7.08899C49.6364 7.335 49.6316 7.5337 49.6316 7.68508C49.6128 8.56502 49.6033 9.10907 49.6033 9.31723C49.6411 10.9541 49.6364 13.1303 49.5892 15.8458V16.8393C49.5797 17.2935 49.5467 17.6814 49.4901 18.0031C49.3297 18.9304 48.9759 19.5028 48.4286 19.7204C47.8625 19.9475 47.301 19.7724 46.7443 19.1953C46.282 18.7222 45.9706 18.1734 45.8102 17.5489C45.6404 16.8866 45.5979 16.0019 45.6828 14.8949L45.7394 14.2137L45.796 13.5324C45.8432 13.0026 45.8668 12.5673 45.8668 12.2267C45.8668 12.0564 45.8574 11.3184 45.8385 10.0127C45.8291 9.58689 45.8196 8.93876 45.8102 8.06828L45.796 7.00384L45.7677 5.91101C45.7111 2.09793 45.6875 0.191391 45.697 0.191391H45.5413L45.4705 0.205584H45.145L43.8995 0.248161L42.102 0.319124C42.0831 0.792211 42.0784 1.37884 42.0878 2.07901L42.1161 3.02991L42.1303 3.98081C42.168 5.63662 42.1633 6.86191 42.1161 7.6567L42.0312 8.96242C41.7859 12.7093 41.701 15.7843 41.7764 18.1876C41.8048 19.1432 42.0454 20.0989 42.4983 21.0545C43.0172 22.1615 43.6589 22.8617 44.4232 23.155C44.8855 23.3253 45.4799 23.4436 46.2065 23.5098L46.6736 23.5524L47.1406 23.595C47.5369 23.6234 47.8341 23.647 48.0323 23.6659C49.4005 23.8079 50.4573 23.647 51.2027 23.1834C51.9764 22.7009 52.5473 21.8067 52.9153 20.501C53.2927 19.2047 53.4437 17.5395 53.3682 15.5052L53.2974 14.2421L53.2266 12.9647C53.1606 11.9334 53.1323 11.096 53.1417 10.4526C53.1417 10.1972 53.1559 9.90386 53.1842 9.5727L53.2549 8.72114C53.3116 8.01151 53.3257 7.43908 53.2974 7.00384C53.2691 6.66322 53.2502 6.27529 53.2408 5.84005Z" fill="white"/>
<path d="M55.8026 0.503628V0.716517L55.8167 0.801673V0.929406C55.845 1.53496 55.8545 2.1547 55.845 2.78864C55.845 3.46042 55.8498 3.79631 55.8592 3.79631C56.0762 3.80577 56.331 3.8105 56.6235 3.8105L56.9915 3.79631H57.3878C57.9162 3.80577 58.2323 3.86727 58.3361 3.98081C58.4115 4.06597 58.4682 4.35455 58.5059 4.84656C58.5248 5.10203 58.5342 5.419 58.5342 5.79747L58.5484 6.76256C58.5578 6.96126 58.5908 8.00678 58.6474 9.89913C58.6757 10.9494 58.704 11.8341 58.7323 12.5531C58.7607 13.6318 58.789 14.6158 58.8173 15.5052C58.9588 20.6808 59.006 23.2686 58.9588 23.2686C59.1758 23.278 59.4778 23.2969 59.8646 23.3253L60.3459 23.3679L60.8412 23.4105C61.6244 23.4673 62.2471 23.4673 62.7095 23.4105C62.6529 23.4199 62.6198 22.1994 62.6104 19.7488V17.1374C62.6198 16.352 62.6246 15.8931 62.6246 15.7607L62.6953 14.1995L62.7803 12.6525C62.8463 11.3562 62.884 10.3154 62.8935 9.53012C62.9029 8.8678 62.8699 7.91216 62.7944 6.66322L62.7095 5.22976C62.6906 4.69044 62.6812 4.2079 62.6812 3.78212C63.5964 3.78212 64.5117 3.75846 65.427 3.71116L65.4694 2.94476L65.5119 2.19255C65.5402 1.62484 65.5402 1.11864 65.5119 0.673939C65.5119 0.617169 64.1484 0.584053 61.4215 0.574591H60.6431L59.8646 0.560399H58.421C57.4491 0.541475 56.8594 0.522552 56.6518 0.503628C56.4725 0.475243 56.1894 0.475243 55.8026 0.503628Z" fill="white"/>
</svg>
