<svg width="83" height="25" viewBox="0 0 83 25" fill="none" xmlns="http://www.w3.org/2000/svg">
<path d="M9.33696 0.992697C8.8803 0.674758 8.26986 0.511114 7.50566 0.501762H7.01638L6.51312 0.515789C6.10306 0.534491 5.78154 0.539167 5.54855 0.529816C3.92694 0.426953 2.6921 0.777621 1.84401 1.58182C1.25688 2.13354 0.893416 2.91903 0.753623 3.9383C0.697705 4.31235 0.665087 4.7612 0.655767 5.28487V5.95815L0.669746 6.60338C0.679066 7.2112 0.669746 7.89851 0.641788 8.6653L0.571891 10.7413C0.497334 12.5647 0.464716 13.944 0.474035 14.8791C0.483355 15.1877 0.478695 15.5945 0.460056 16.0995L0.446076 16.7307L0.418118 17.3899C0.399478 18.4466 0.446076 19.3116 0.557911 19.9849C0.865458 21.9299 1.83469 23.1642 3.46562 23.6879C4.61193 24.0526 5.74426 24.2069 6.86261 24.1508C8.26055 24.0853 9.27172 23.6692 9.89613 22.9024C10.1664 22.5845 10.418 21.5465 10.651 19.7885C10.9026 18.0024 10.8654 17.0954 10.5392 17.0673C10.3062 17.0486 10.0126 17.0439 9.65848 17.0533L9.22512 17.0673C9.06669 17.0673 8.91758 17.0673 8.77778 17.0673C8.67527 17.0673 8.54945 17.0579 8.40034 17.0392L8.06483 17.0252C7.8132 17.0159 7.5709 17.0299 7.33791 17.0673C7.31927 17.1608 7.30063 17.3151 7.28199 17.5302L7.25403 17.8247L7.22607 18.1474C7.16083 18.7084 7.06764 19.1479 6.94648 19.4659C6.54574 20.4477 5.73028 20.5693 4.50009 19.8306C4.01548 19.5313 3.74521 18.9422 3.68929 18.0632C3.67065 17.8014 3.67065 17.4273 3.68929 16.9411L3.70327 16.6746V16.408C3.71259 16.221 3.71259 16.0621 3.70327 15.9311C3.64735 14.9119 3.64735 13.4718 3.70327 11.6109L3.73123 10.5309L3.75919 9.4508C3.76851 8.6466 3.76385 7.92656 3.74521 7.29069C3.69861 6.22466 3.84306 5.43449 4.17857 4.92017C4.60727 4.25624 5.34352 4.08325 6.38731 4.40119C7.0956 4.62561 7.52896 5.11655 7.68739 5.87399C7.75263 6.14517 7.78525 6.48649 7.78525 6.89794V7.43095C7.78525 7.65538 7.78525 7.8237 7.78525 7.93591L8.19065 7.96397L8.61003 7.97799C8.95485 7.98735 9.22512 8.00137 9.42083 8.02007C9.45811 8.02943 9.55131 8.04813 9.70042 8.07618L9.88215 8.10424L10.0639 8.13229C10.3807 8.17904 10.5904 8.15567 10.693 8.06215C10.8327 7.94994 10.8933 7.68811 10.8747 7.27666V7.02418L10.8467 6.7717C10.8374 6.58468 10.8327 6.44441 10.8327 6.3509L10.8747 5.63554L10.9026 4.89212C10.9026 4.3404 10.8654 3.85414 10.7908 3.43334C10.6044 2.34861 10.1198 1.53506 9.33696 0.992697Z" fill="white"/>
<path d="M19.7376 11.0639C19.7376 12.027 19.7003 13.1819 19.6258 14.5285C19.5792 15.4262 19.5 16.5764 19.3881 17.979L19.3602 18.5401L19.3322 19.1012C19.2949 19.522 19.2297 19.8493 19.1365 20.083C18.9035 20.7096 18.3816 20.9246 17.5708 20.7283C16.555 20.4945 15.9772 19.7932 15.8374 18.6243C15.7908 18.2409 15.7861 17.7172 15.8234 17.0533L15.8513 16.6605L15.8793 16.2678C15.8979 15.9685 15.9073 15.7207 15.9073 15.5244C15.9073 15.2532 15.9119 14.9165 15.9212 14.5144V13.4204C15.9212 12.4665 15.9212 11.7652 15.9212 11.3163C15.9306 11.0265 15.9026 10.5168 15.8374 9.78744L15.7954 9.33858L15.7675 8.88973C15.7395 8.54374 15.7255 8.23515 15.7255 7.96397C15.6789 6.44908 15.9026 5.39708 16.3965 4.80796C16.8159 4.29365 17.431 4.17676 18.2418 4.45729C18.9035 4.68172 19.3369 5.05109 19.5419 5.5654C19.7935 6.19193 19.9054 7.08964 19.8774 8.25853L19.8494 9.00194L19.7935 9.71731C19.7656 10.3158 19.7469 10.7646 19.7376 11.0639ZM21.9324 2.32523C21.5782 1.77352 21.0843 1.3948 20.4506 1.18907C20.0125 1.0488 19.3928 0.964644 18.5913 0.93659C17.5102 0.908537 16.5969 1.00205 15.8513 1.21712C14.8448 1.50701 14.0806 2.03535 13.5587 2.80214C13.1393 3.40997 12.9064 4.36378 12.8598 5.66359C12.8411 6.05634 12.8411 6.5987 12.8598 7.29069V7.68343L12.8737 8.04813C12.8737 8.31931 12.8691 8.54841 12.8598 8.73544V8.74946L12.8318 9.73133L12.7899 10.7132L12.7339 12.6629C12.6967 14.1497 12.7013 15.4542 12.7479 16.5764L12.8178 17.7266L12.8877 18.8627C12.953 19.7885 12.9856 20.5459 12.9856 21.135C12.9856 21.8738 13.2885 22.5284 13.8942 23.0988C14.4068 23.5757 15.0452 23.917 15.8094 24.1227C16.6668 24.3659 17.4963 24.4921 18.2977 24.5014C19.2017 24.5108 20.0219 24.3098 20.7581 23.8983C21.6248 23.4307 22.1514 22.7762 22.3378 21.9346C22.4776 21.2987 22.5941 20.3542 22.6873 19.1012C22.7152 18.7365 22.7525 18.1474 22.7991 17.3338L22.8271 16.8569L22.855 16.38C22.8736 16.0153 22.8923 15.6833 22.9109 15.3841C22.9948 14.1217 23.0228 12.7143 22.9948 11.1621C22.9855 10.5729 22.9668 9.8716 22.9389 9.05805L22.883 8.00605L22.841 6.92599V6.65948L22.8271 6.36492L22.7851 5.7758C22.7572 5.3176 22.7152 4.90615 22.6593 4.54145C22.5195 3.59699 22.2772 2.85825 21.9324 2.32523Z" fill="white"/>
<path d="M36.7365 17.1655C36.7365 16.754 36.7319 16.2818 36.7225 15.7488L36.6806 14.3321C36.662 13.93 36.6387 12.5694 36.6107 10.2503C36.6014 9.86692 36.5967 9.42742 36.5967 8.93181L36.5828 8.30061V8.00605V7.72551C36.5641 6.88391 36.5548 6.37895 36.5548 6.21063L36.5408 4.83601L36.5268 3.47542C36.5175 2.38134 36.4942 1.4696 36.4569 0.740216C36.0376 0.702812 35.5343 0.693461 34.9472 0.712163L34.1783 0.754243L33.4234 0.782296C33.4793 1.26856 33.5073 1.76884 33.5073 2.28315C33.5166 3.63907 33.5213 5.31292 33.5213 7.30471L33.5073 8.62322V9.94173L33.4793 10.8394L33.4654 11.7512C33.4467 12.4712 33.4467 13.0744 33.4654 13.5606C32.7011 12.4478 31.9136 11.0124 31.1028 9.25443C30.8046 8.59985 30.3293 7.64603 29.6769 6.39298L28.936 4.96225C28.6751 4.42924 28.4421 3.94298 28.2371 3.50348C28.1625 3.34451 28.0833 3.14346 27.9994 2.90033L27.9155 2.57771L27.8177 2.26913C27.7897 2.20367 27.7525 2.11951 27.7059 2.01665L27.58 1.75014C27.4775 1.53506 27.4263 1.36674 27.4263 1.24518C27.1374 1.22648 26.8019 1.22648 26.4198 1.24518L25.9025 1.2592L25.3993 1.28726C25.3899 1.52104 25.4132 1.84833 25.4692 2.26913L25.539 2.74603C25.5577 2.93306 25.5623 3.10138 25.553 3.251L25.539 3.91025V4.56951C25.5297 5.10252 25.5111 5.5467 25.4831 5.90204C25.3899 7.07093 25.3387 8.39412 25.3294 9.8716C25.3294 10.8254 25.3433 12.0037 25.3713 13.4063L25.3993 15.1737L25.4412 16.9411C25.4412 17.4273 25.4319 17.9884 25.4132 18.6243L25.3433 20.2934C25.2874 21.7148 25.2781 22.8323 25.3154 23.6458C25.3154 23.6271 25.8746 23.6458 26.9929 23.7019C27.5428 23.73 27.9388 23.7487 28.1812 23.758C28.5633 23.7674 28.7776 23.7721 28.8242 23.7721C28.8615 22.9959 28.8615 22.0421 28.8242 20.9106L28.7683 19.4799L28.7403 18.0492L28.7124 16.5623L28.6984 15.0755C28.6984 14.9259 28.6937 14.7202 28.6844 14.4583L28.6564 13.8271C28.6378 13.3315 28.6797 12.9201 28.7823 12.5928C28.9034 12.8079 29.0432 13.0977 29.2016 13.4624L29.3974 13.9113L29.5931 14.3601C29.8261 14.8371 30.0917 15.3373 30.3899 15.861L30.7813 16.5343L31.1867 17.2076C31.8577 18.3297 32.3656 19.2835 32.7105 20.069C32.7664 20.1999 32.8503 20.3729 32.9621 20.588L33.1019 20.8545C33.1578 20.9667 33.2091 21.0696 33.2557 21.1631C33.5166 21.7148 33.7776 22.4068 34.0385 23.239C34.4299 23.3419 34.9006 23.3887 35.4504 23.3793L36.1773 23.3372L36.9043 23.2811C36.9229 22.8416 36.9089 22.2899 36.8623 21.626L36.8344 21.2192L36.8064 20.8124C36.7878 20.5038 36.7785 20.2186 36.7785 19.9568L36.7645 18.5541L36.7365 17.1655Z" fill="white"/>
<path d="M38.2463 1.09088V1.30128L38.2603 1.38544V1.51169C38.2882 2.11016 38.2976 2.72266 38.2882 3.34918C38.2882 4.01311 38.2929 4.34508 38.3022 4.34508C38.5166 4.35443 38.7682 4.35911 39.0571 4.35911L39.4206 4.34508H39.812C40.3339 4.35443 40.6461 4.41521 40.7486 4.52743C40.8232 4.61159 40.8791 4.8968 40.9164 5.38305C40.935 5.63554 40.9443 5.9488 40.9443 6.32284L40.9583 7.27666C40.9676 7.47303 41.0002 8.50633 41.0561 10.3766C41.0841 11.4145 41.1121 12.2889 41.14 12.9996C41.168 14.0656 41.1959 15.0381 41.2239 15.9171C41.3637 21.0322 41.4103 23.5897 41.3637 23.5897C41.578 23.5991 41.8763 23.6178 42.2584 23.6458L42.7337 23.6879L43.223 23.73C43.9965 23.7861 44.6116 23.7861 45.0682 23.73C45.0123 23.7393 44.9797 22.533 44.9704 20.1111V17.5302C44.9797 16.754 44.9844 16.3005 44.9844 16.1696L45.0542 14.6267L45.1381 13.0977C45.2034 11.8166 45.2406 10.788 45.25 10.0119C45.2593 9.35729 45.2267 8.41282 45.1521 7.17847L45.0682 5.76178C45.0496 5.22876 45.0403 4.75185 45.0403 4.33105C45.9443 4.33105 46.8483 4.30767 47.7523 4.26092L47.7942 3.50348L47.8361 2.76006C47.8641 2.19899 47.8641 1.69871 47.8361 1.2592C47.8361 1.2031 46.4895 1.17037 43.7961 1.16102H43.0272L42.2584 1.14699H40.8325C39.8726 1.12829 39.2901 1.10959 39.0851 1.09088C38.908 1.06283 38.6284 1.06283 38.2463 1.09088Z" fill="white"/>
<path d="M52.5053 15.2438L52.687 14.0095C52.7243 13.7383 52.7988 13.411 52.9107 13.0276L53.0644 12.5367L53.2042 12.0317C53.4465 11.2182 53.5584 10.5542 53.5397 10.0399C53.7634 10.3018 53.9312 10.7366 54.043 11.3444L54.1129 11.7372L54.1548 12.1159C54.2014 12.4151 54.2434 12.6442 54.2806 12.8032C54.3459 13.0557 54.4297 13.3689 54.5323 13.743L54.7979 14.6547C54.9936 15.3747 55.1194 15.9966 55.1753 16.5203C54.7746 16.5764 54.3039 16.5951 53.7634 16.5764L53.0504 16.5343L52.3375 16.4782L52.5053 15.2438ZM56.8808 5.81788C56.8622 5.78048 56.8342 5.68229 56.7969 5.52332L56.769 5.39708L56.727 5.27084C56.6991 5.15863 56.6758 5.05576 56.6571 4.96225C56.5919 4.70977 56.5313 4.47132 56.4754 4.24689C56.4008 3.96636 56.3309 3.7092 56.2657 3.47542C55.9022 2.10081 55.6879 1.4135 55.6227 1.4135C55.5295 1.40415 55.385 1.3948 55.1893 1.38544L54.9097 1.35739L54.6022 1.32934C54.0709 1.29193 53.6189 1.27791 53.2462 1.28726C52.0905 1.29661 51.3776 1.49766 51.1073 1.89041C50.9955 2.05873 50.9256 2.33458 50.8976 2.71798L50.8836 2.94241L50.8697 3.18086C50.8603 3.35853 50.8464 3.49413 50.8277 3.58764L50.4643 5.49527L50.0728 7.38887C49.7467 8.95986 49.5043 10.2269 49.3459 11.1901L48.8706 14.0095C48.5444 15.8049 48.2276 17.4787 47.92 19.031C47.7523 19.8352 47.5752 20.6675 47.3888 21.5278L47.1092 22.7762L47.0393 23.0848L46.9694 23.3793L46.9415 23.4775L46.8855 23.5897C46.8483 23.6739 46.8343 23.744 46.8436 23.8001C46.9368 23.8001 47.058 23.8095 47.2071 23.8282L47.5705 23.8702C47.8594 23.8796 48.2602 23.8749 48.7728 23.8562L49.3739 23.8422H49.975L50.5342 23.8843C50.7578 23.8936 50.9442 23.8983 51.0933 23.8983C51.1213 23.758 51.1353 23.5897 51.1353 23.3933L51.1213 23.1409V22.8884C51.1306 22.4395 51.1959 21.9205 51.317 21.3314L51.4987 20.5459L51.7084 19.7745C51.8575 19.7838 52.0812 19.7745 52.3794 19.7464L52.7149 19.7183C52.8361 19.709 52.9433 19.7043 53.0365 19.7043L53.5677 19.7183L54.0989 19.7464C54.5276 19.7651 54.8817 19.7604 55.1613 19.7324L55.3431 19.7183H55.5248C55.6832 19.709 55.809 19.6996 55.9022 19.6903C55.9582 19.9241 56.0001 20.1485 56.0281 20.3636L56.1399 21.1491L56.2377 21.9486L56.2797 22.3554L56.3216 22.7481C56.3309 22.8136 56.3542 22.9024 56.3915 23.0146L56.4335 23.1409L56.4614 23.2811C56.4801 23.3372 56.4894 23.412 56.4894 23.5056V23.744C56.7037 23.7534 57.0066 23.7487 57.398 23.73L57.8454 23.716H58.3067L58.7261 23.73L59.1594 23.758C59.4949 23.7674 59.7792 23.7534 60.0122 23.716C60.0029 23.398 59.9702 23.0099 59.9143 22.5517L59.8304 21.9626L59.7466 21.3875C59.001 15.3467 58.0457 10.1568 56.8808 5.81788Z" fill="white"/>
<path d="M70.2311 0.992697C69.7744 0.674758 69.164 0.511114 68.3998 0.501762H67.9105L67.4073 0.515789C66.9972 0.534491 66.6757 0.539167 66.4427 0.529816C64.8211 0.426953 63.5862 0.777621 62.7382 1.58182C62.151 2.13354 61.7876 2.91903 61.6478 3.9383C61.5918 4.31235 61.5592 4.7612 61.5499 5.28487V5.95815L61.5639 6.60338C61.5732 7.2112 61.5639 7.89851 61.5359 8.6653L61.466 10.7413C61.3915 12.5647 61.3589 13.944 61.3682 14.8791C61.3775 15.1877 61.3728 15.5945 61.3542 16.0995L61.3402 16.7307L61.3123 17.3899C61.2936 18.4466 61.3402 19.3116 61.4521 19.9849C61.7596 21.9299 62.7288 23.1642 64.3598 23.6879C65.5061 24.0526 66.6384 24.2069 67.7568 24.1508C69.1547 24.0853 70.1659 23.6692 70.7903 22.9024C71.0605 22.5845 71.3122 21.5465 71.5452 19.7885C71.7968 18.0024 71.7595 17.0954 71.4333 17.0673C71.2003 17.0486 70.9068 17.0439 70.5526 17.0533L70.1193 17.0673C69.9608 17.0673 69.8117 17.0673 69.6719 17.0673C69.5694 17.0673 69.4436 17.0579 69.2945 17.0392L68.959 17.0252C68.7073 17.0159 68.465 17.0299 68.232 17.0673C68.2134 17.1608 68.1948 17.3151 68.1761 17.5302L68.1482 17.8247L68.1202 18.1474C68.055 18.7084 67.9618 19.1479 67.8406 19.4659C67.4399 20.4477 66.6244 20.5693 65.3942 19.8306C64.9096 19.5313 64.6394 18.9422 64.5834 18.0632C64.5648 17.8014 64.5648 17.4273 64.5834 16.9411L64.5974 16.6746V16.408C64.6067 16.221 64.6067 16.0621 64.5974 15.9311C64.5415 14.9119 64.5415 13.4718 64.5974 11.6109L64.6254 10.5309L64.6533 9.4508C64.6626 8.6466 64.658 7.92656 64.6394 7.29069C64.5928 6.22466 64.7372 5.43449 65.0727 4.92017C65.5014 4.25624 66.2377 4.08325 67.2814 4.40119C67.9897 4.62561 68.4231 5.11655 68.5815 5.87399C68.6468 6.14517 68.6794 6.48649 68.6794 6.89794V7.43095C68.6794 7.65538 68.6794 7.8237 68.6794 7.93591L69.0848 7.96397L69.5042 7.97799C69.849 7.98735 70.1193 8.00137 70.315 8.02007C70.3523 8.02943 70.4454 8.04813 70.5946 8.07618L70.7763 8.10424L70.958 8.13229C71.2749 8.17904 71.4846 8.15567 71.5871 8.06215C71.7269 7.94994 71.7875 7.68811 71.7688 7.27666V7.02418L71.7409 6.7717C71.7315 6.58468 71.7269 6.44441 71.7269 6.3509L71.7688 5.63554L71.7968 4.89212C71.7968 4.3404 71.7595 3.85414 71.685 3.43334C71.4986 2.34861 71.0139 1.53506 70.2311 0.992697Z" fill="white"/>
<path d="M72.8033 1.09088V1.30128L72.8173 1.38544V1.51169C72.8452 2.11016 72.8546 2.72266 72.8452 3.34918C72.8452 4.01311 72.8499 4.34508 72.8592 4.34508C73.0736 4.35443 73.3252 4.35911 73.6141 4.35911L73.9776 4.34508H74.369C74.8909 4.35443 75.2031 4.41521 75.3056 4.52743C75.3802 4.61159 75.4361 4.8968 75.4734 5.38305C75.492 5.63554 75.5013 5.9488 75.5013 6.32284L75.5153 7.27666C75.5246 7.47303 75.5572 8.50633 75.6132 10.3766C75.6411 11.4145 75.6691 12.2889 75.697 12.9996C75.725 14.0656 75.7529 15.0381 75.7809 15.9171C75.9207 21.0322 75.9673 23.5897 75.9207 23.5897C76.1351 23.5991 76.4333 23.6178 76.8154 23.6458L77.2907 23.6879L77.78 23.73C78.5535 23.7861 79.1686 23.7861 79.6252 23.73C79.5693 23.7393 79.5367 22.533 79.5274 20.1111V17.5302C79.5367 16.754 79.5414 16.3005 79.5414 16.1696L79.6113 14.6267L79.6951 13.0977C79.7604 11.8166 79.7976 10.788 79.807 10.0119C79.8163 9.35729 79.7837 8.41282 79.7091 7.17847L79.6252 5.76178C79.6066 5.22876 79.5973 4.75185 79.5973 4.33105C80.5013 4.33105 81.4053 4.30767 82.3093 4.26092L82.3512 3.50348L82.3932 2.76006C82.4211 2.19899 82.4211 1.69871 82.3932 1.2592C82.3932 1.2031 81.0465 1.17037 78.3531 1.16102H77.5843L76.8154 1.14699H75.3895C74.4296 1.12829 73.8471 1.10959 73.6421 1.09088C73.465 1.06283 73.1854 1.06283 72.8033 1.09088Z" fill="white"/>
</svg>
