<svg width="505" height="239" viewBox="0 0 605 239" fill="none" xmlns="http://www.w3.org/2000/svg">
<path d="M206.158 218.062C206.076 217.18 205.945 216.141 205.763 214.944L205.287 211.88L205.01 210.041L204.777 208.196C204.606 206.611 204.436 205.383 204.267 204.511C203.547 200.229 202.771 195.269 201.94 189.632C201.411 186.158 200.625 181.23 199.58 174.846C199.55 174.612 199.401 173.664 199.131 172.002L198.987 170.86L198.788 169.636C198.658 168.611 198.532 167.734 198.411 167.006C197.738 162.39 197.372 160.086 197.314 160.093C193.66 160.376 190.155 160.775 186.799 161.288C187.109 166.098 187.688 171.976 188.536 178.92L190.757 196.49C189.812 196.55 188.795 196.619 187.704 196.697L186.287 196.787L185.008 196.904C182.969 197.013 181.362 197.127 180.187 197.246C179.521 192.689 178.604 187.077 177.434 180.412L175.94 172.122C175.339 168.776 174.861 166.055 174.507 163.957C172.636 163.748 170.421 163.76 167.862 163.994C167.774 164.005 167.508 164.024 167.066 164.05L166.445 164.084L165.781 164.123C164.602 164.213 164 164.274 163.974 164.307C163.994 165.405 164.184 166.913 164.546 168.831C164.904 170.72 165.205 172.868 165.45 175.277L165.773 178.539L166.052 181.806C166.632 188.516 167.56 196.328 168.835 205.241L169.683 210.89L170.575 216.535C171.325 221.29 171.89 225.056 172.271 227.834L172.454 229.284L172.599 230.783C172.725 232.017 172.851 233.012 172.976 233.77L174.997 233.514C175.348 233.47 175.643 233.448 175.881 233.447L176.15 233.458L176.326 233.436C176.626 233.457 177.082 233.415 177.693 233.308C177.781 233.297 178.12 233.269 178.709 233.224L179.104 233.174L179.505 233.168L180.428 233.051C182.016 232.91 182.805 232.795 182.794 232.708C183.047 224.821 182.568 215.852 181.357 205.8C185.743 205.662 189.155 205.469 191.593 205.221L192.156 211.442C192.386 213.734 192.63 215.785 192.889 217.597C193.27 220.375 193.668 222.586 194.084 224.229L194.449 225.701C194.611 226.275 194.73 226.751 194.808 227.128C194.815 227.187 194.841 227.392 194.885 227.743L194.996 228.265L195.068 228.836C195.22 229.798 195.295 230.28 195.295 230.28C195.625 230.298 196.037 230.26 196.531 230.168L197.184 230.041L197.794 229.919C198.606 229.757 199.543 229.639 200.605 229.564L202.021 229.474L203.482 229.379C203.716 229.349 203.907 229.325 204.053 229.307L204.405 229.262C204.61 229.236 204.921 229.227 205.338 229.234C205.873 229.225 206.55 229.17 207.37 229.066L207.308 228.226L207.197 227.347C207.145 226.937 207.119 226.375 207.118 225.661L207.033 223.932C206.974 223.225 206.797 222.177 206.502 220.786C206.421 220.379 206.349 219.927 206.286 219.43L206.246 218.765L206.158 218.062Z" fill="white"/>
<path d="M228.967 199.381L229.049 195.444C229.059 194.58 229.164 193.525 229.363 192.28L229.652 190.682L229.892 189.045C230.331 186.401 230.42 184.277 230.157 182.674C230.964 183.405 231.663 184.7 232.255 186.559L232.63 187.762L232.912 188.931C233.177 189.849 233.399 190.55 233.579 191.033C233.884 191.798 234.272 192.746 234.742 193.876L235.937 196.626C236.837 198.803 237.479 200.701 237.862 202.318C236.625 202.653 235.153 202.899 233.447 203.055L231.19 203.206L228.928 203.314L228.967 199.381ZM238.985 168.126C238.911 168.016 238.785 167.719 238.605 167.236L238.467 166.852L238.285 166.473C238.153 166.133 238.039 165.82 237.943 165.535C237.638 164.77 237.354 164.047 237.089 163.367C236.744 162.518 236.422 161.74 236.125 161.034C234.439 156.874 233.493 154.807 233.288 154.832C232.992 154.84 232.534 154.868 231.915 154.917L231.026 154.94L230.048 154.974C228.364 155.068 226.939 155.204 225.771 155.381C222.143 155.869 219.983 156.782 219.289 158.119C219.004 158.691 218.894 159.582 218.958 160.794L219.002 161.502L219.053 162.255C219.094 162.815 219.104 163.245 219.082 163.545L218.695 169.663L218.215 175.749C217.811 180.798 217.552 184.862 217.435 187.941L217.057 196.959C216.743 202.711 216.41 208.079 216.058 213.062C215.849 215.647 215.622 218.324 215.377 221.092L214.992 225.113L214.895 226.107L214.792 227.057L214.743 227.376L214.612 227.749C214.528 228.027 214.512 228.253 214.563 228.425C214.856 228.388 215.24 228.369 215.716 228.368L216.875 228.356C217.787 228.27 219.044 228.096 220.647 227.834L222.53 227.552L224.419 227.313L226.193 227.223C226.899 227.163 227.487 227.104 227.955 227.044C227.988 226.594 227.965 226.061 227.887 225.446L227.743 224.661L227.644 223.871C227.495 222.461 227.495 220.81 227.642 218.917L227.902 216.385L228.256 213.886C228.728 213.856 229.427 213.738 230.353 213.532L231.396 213.311C231.773 213.233 232.108 213.176 232.401 213.139L234.076 212.972L235.756 212.849C237.111 212.737 238.222 212.582 239.089 212.383L239.655 212.267L240.226 212.195C240.72 212.102 241.111 212.023 241.4 211.957C241.669 212.667 241.889 213.353 242.062 214.015L242.725 216.431L243.349 218.896L243.641 220.153L243.929 221.366C243.984 221.568 244.092 221.836 244.254 222.173L244.435 222.552L244.579 222.98C244.66 223.148 244.718 223.379 244.755 223.672L244.85 224.418C245.527 224.363 246.477 224.228 247.699 224.014L249.1 223.792L250.549 223.609L251.872 223.486L253.245 223.402C254.303 223.298 255.191 223.141 255.908 222.931C255.753 221.94 255.497 220.737 255.14 219.324L254.643 217.513L254.152 215.745C249.418 197.124 244.363 181.251 238.985 168.126Z" fill="white"/>
<path d="M282.056 184.059L280.395 182.216C279.086 180.804 277.871 179.664 276.749 178.794L275.908 178.141C272.119 175.467 269.26 172.972 267.331 170.657C265.541 168.503 265.317 166.731 266.659 165.342C267.419 164.532 268.32 164.121 269.359 164.108C270.373 164.129 271.289 164.548 272.107 165.367C272.961 166.241 273.572 167.429 273.94 168.929C274.088 169.387 274.229 170.038 274.366 170.884L274.538 171.888L274.748 172.844C275.923 172.725 277.33 172.562 278.97 172.355L283.231 171.816C283.989 171.69 284.429 171.531 284.554 171.336C284.678 171.142 284.69 170.65 284.59 169.859C284.397 168.098 284.24 166.735 284.118 165.768C283.896 164.249 283.649 162.882 283.376 161.667C282.687 158.571 281.681 156.02 280.356 154.016C279.428 152.556 278.208 151.491 276.695 150.819C275.559 150.308 273.947 149.917 271.86 149.645C268.956 149.268 266.147 149.281 263.431 149.684C260.217 150.15 257.617 151.118 255.631 152.589C253.996 153.777 252.907 155.521 252.365 157.821C251.961 159.568 251.87 161.677 252.093 164.148C252.317 166.857 252.71 169.262 253.273 171.363C253.936 174.016 254.869 176.219 256.072 177.971L258.603 181.757C259.586 183.179 260.538 184.353 261.458 185.278C262.488 186.368 264.125 187.664 266.368 189.165L267.78 190.102L269.237 191.034C270.343 191.787 271.274 192.443 272.029 193.002C276.372 196.291 278.511 199.799 278.447 203.526C278.448 204.002 278.419 204.482 278.361 204.965C278.314 205.536 278.234 206.082 278.122 206.602C277.841 207.917 277.389 208.807 276.763 209.273C276.036 209.87 275.082 209.976 273.903 209.59C272.818 209.251 272.003 208.684 271.456 207.891C270.943 207.122 270.542 206.191 270.255 205.097C270.171 204.661 270.078 204.167 269.979 203.615L269.735 201.682L269.717 201.193C269.691 200.75 269.663 200.411 269.634 200.177C269.497 199.332 269.225 198.83 268.819 198.674C268.412 198.517 267.642 198.54 266.507 198.743L265.81 198.875L265.156 199.003C264.633 199.098 264.285 199.172 264.113 199.224L262.795 199.39L261.428 199.518C260.345 199.655 259.457 199.812 258.765 199.989C258.505 200.051 258.798 202.127 259.642 206.215C259.793 206.94 259.951 207.723 260.117 208.565C260.257 209.202 260.419 209.895 260.603 210.646C260.957 212.267 261.137 213.107 261.145 213.166C261.495 214.996 262.105 216.644 262.975 218.111C264.002 219.885 265.236 221.053 266.675 221.615C270.936 223.308 274.868 223.823 278.474 223.159L279.874 222.937L281.312 222.666C282.385 222.441 283.322 222.204 284.123 221.954C286.183 221.307 287.831 220.34 289.067 219.053C289.882 218.206 290.538 216.799 291.033 214.833C291.412 213.357 291.675 211.791 291.823 210.136C291.977 207.826 291.785 205.128 291.246 202.042C290.804 199.718 290.145 197.094 289.269 194.17C288.618 192.08 286.769 189.339 283.722 185.945L282.056 184.059Z" fill="white"/>
<path d="M316.041 145.4L315.42 145.434L314.712 145.479C313.533 145.568 312.945 145.628 312.949 145.657C312.969 146.755 313.16 148.263 313.521 150.181C313.846 152.044 314.147 154.193 314.425 156.627L314.704 159.895L315.027 163.156C315.392 167.454 315.876 172.108 316.479 177.12C311.929 177.367 308.792 177.615 307.068 177.863L306.222 169.758L305.42 161.648C304.763 155.275 304.053 149.89 303.289 145.494C303.274 145.377 301.279 145.719 297.305 146.519C293.355 147.285 291.375 147.744 291.364 147.894C291.712 152.759 292.326 158.796 293.207 166.003L294.35 175.052C294.813 178.712 295.178 181.716 295.445 184.062C295.663 185.79 295.884 188.127 296.108 191.074L297.005 201.002C297.421 204.758 297.969 208.036 298.65 210.835L299.053 212.257C299.218 212.861 299.325 213.353 299.373 213.734C299.406 213.76 299.447 213.963 299.495 214.343L299.628 215.398C299.783 216.39 299.875 216.884 299.905 216.88C300.205 216.902 300.617 216.864 301.14 216.769L301.788 216.597L302.397 216.476C303.184 216.347 304.121 216.228 305.209 216.12L306.625 216.031L308.048 215.985L309.014 215.863C309.219 215.837 309.53 215.827 309.948 215.834C310.453 215.83 311.128 215.759 311.974 215.622L311.912 214.782L311.807 213.948L311.129 208.232L310.495 202.51C309.969 198.114 309.429 194.315 308.876 191.112L308.233 187.087L313.033 186.927C314.871 186.873 316.454 186.807 317.783 186.728L319.561 197.973C320.307 202.698 320.869 206.436 321.246 209.185L321.53 212.139C321.656 213.372 321.782 214.368 321.908 215.126L323.928 214.87C324.309 214.822 324.618 214.798 324.856 214.798L325.081 214.814L325.301 214.786C325.572 214.811 326.028 214.769 326.668 214.658C326.727 214.65 327.051 214.624 327.64 214.58L328.035 214.53L328.48 214.518L329.359 214.407C330.947 214.266 331.751 214.149 331.769 214.058C332.067 204.41 331.241 192.926 329.289 179.606C328.606 174.903 327.666 169.116 326.47 162.245L324.949 153.735C324.329 150.244 323.825 147.436 323.438 145.313C321.596 145.1 319.396 145.11 316.837 145.344C316.749 145.355 316.484 145.374 316.041 145.4Z" fill="white"/>
<path d="M351.56 201.158L351.437 199.835C351.326 198.956 351.18 197.919 350.999 196.722L350.473 193.62C350.377 193.096 350.3 192.481 350.24 191.775L350.095 189.919C350.008 188.293 349.884 187.074 349.722 186.262C348.925 181.84 348.091 176.888 347.219 171.405C347.02 170.299 346.878 169.053 346.792 167.665L346.677 163.931C346.613 160.607 346.433 158.116 346.134 156.458C346.071 156.198 345.922 155.25 345.685 153.614L345.497 152.477L345.297 151.253C345.139 150.232 344.998 149.357 344.876 148.628C344.145 144.02 343.75 141.72 343.692 141.727C339.541 142.073 335.543 142.578 331.7 143.243C332.109 148.13 332.797 154.157 333.762 161.324L335.037 170.356C335.533 174.042 335.929 177.056 336.225 179.399C336.417 180.922 336.666 183.241 336.97 186.356L337.666 192.918C337.918 195.385 338.194 197.567 338.493 199.463C338.903 202.237 339.331 204.444 339.776 206.084C339.857 206.49 340.062 207.521 340.39 209.175L340.556 210.136L340.711 211.009C340.818 211.62 340.899 212.026 340.954 212.228C340.969 212.345 340.989 212.387 341.015 212.354L341.048 212.26L341.086 212.211C341.416 212.229 341.829 212.206 342.327 212.143C342.704 212.066 343.125 211.983 343.59 211.894C345.127 211.581 347.001 211.344 349.212 211.184C349.48 211.18 349.685 211.154 349.827 211.106L350.179 211.062C350.38 211.006 350.687 210.968 351.101 210.945C351.606 210.941 352.282 210.87 353.127 210.734L353.066 209.893L352.916 209.064C352.864 208.654 352.822 208.08 352.788 207.34L352.703 205.61C352.684 205.226 352.544 204.708 352.283 204.057L352.008 203.288L351.782 202.558C351.701 202.152 351.627 201.685 351.56 201.158Z" fill="white"/>
<path d="M388.83 134.817L387.775 134.95L386.672 135.045C384.845 135.187 383.545 135.262 382.773 135.27L381.609 135.239L380.488 135.202C379.628 135.222 378.863 135.288 378.193 135.403C378.208 135.758 378.176 136.208 378.096 136.754L378.047 137.43L377.993 138.061L377.896 139.055L377.793 140.005C377.71 140.76 377.687 141.402 377.724 141.933C377.81 143.321 377.783 144.99 377.643 146.942C377.38 150.277 377.135 152.926 376.907 154.889C376.762 156.098 376.609 157.709 376.447 159.722L376.225 162.205L376.009 164.731C375.652 168.734 375.171 171.874 374.566 174.152C374.052 172.67 373.32 170.412 372.371 167.378C371.592 164.977 370.788 162.386 369.961 159.605C369.277 157.252 368.049 153.896 366.279 149.538C364.842 145.941 363.69 142.71 362.822 139.845L362.646 139.153C362.583 138.893 362.515 138.708 362.442 138.599C362.28 138.262 362.005 138.088 361.617 138.078C360.845 138.086 359.99 138.15 359.053 138.268C358.526 138.335 357.836 138.407 356.983 138.485L355.835 138.586L354.682 138.642C352.712 138.832 351.246 139.002 350.284 139.153C350.477 140.914 350.842 143.218 351.381 146.066L352.033 149.464C352.255 150.745 352.443 151.882 352.598 152.874L353.535 159.227L354.521 165.618C355.278 170.669 355.859 174.909 356.263 178.339C356.493 180.393 356.76 182.977 357.064 186.093L357.822 193.851C358.427 200.052 359.078 205.206 359.776 209.313C359.816 209.635 361.599 209.618 365.125 209.262C366.241 209.151 367.502 209.006 368.908 208.828L371.016 208.562C370.927 207.621 370.817 206.162 370.686 204.186L370.529 201.885L370.361 199.496C370.038 195.759 369.644 192.64 369.179 190.14C369.421 190.645 369.774 191.314 370.236 192.148L370.803 193.103L371.32 194.02C371.948 195.22 372.607 196.787 373.298 198.723L374.147 201.204C374.482 202.203 374.761 203.001 374.985 203.598C376.765 204.027 379.357 203.938 382.761 203.329C382.445 202 382.528 200.19 383.012 197.897L383.329 196.518L383.64 195.096C383.916 193.99 384.087 193.105 384.152 192.442C384.265 191.684 384.357 190.765 384.429 189.685L384.65 186.846C384.804 184.535 385.06 182.673 385.417 181.26C385.162 182.303 385.327 184.082 385.913 186.597L386.233 188.074L386.598 189.545C386.852 190.614 387.001 191.443 387.046 192.032C387.336 195.744 387.895 200.166 388.722 205.298C392.262 205.059 395.702 204.728 399.04 204.306L398.798 203.801C398.49 201.371 398.144 198.514 397.759 195.23L396.764 186.653L395.908 179.175L395.091 171.647C394.42 165.871 393.789 160.878 393.198 156.668C392.784 153.626 392.293 149.865 391.727 145.385L391.231 140.048C391.067 137.807 390.87 136.017 390.642 134.677C390.257 134.696 389.653 134.743 388.83 134.817Z" fill="white"/>
<path d="M422.958 161.565C423.34 164.581 423.68 168.212 423.978 172.459C424.187 175.289 424.393 178.922 424.597 183.359L424.866 186.895C424.915 188.228 424.84 189.279 424.639 190.048C424.155 192.102 422.6 192.983 419.975 192.69C416.69 192.361 414.597 190.395 413.695 186.79C413.397 185.607 413.175 183.969 413.03 181.875L412.895 179.393C412.835 178.449 412.766 177.669 412.688 177.054C412.581 176.205 412.462 175.149 412.332 173.886L411.899 170.46C411.522 167.473 411.244 165.277 411.067 163.871C410.981 162.959 410.692 161.375 410.198 159.116L409.888 157.727L409.623 156.333C409.398 155.26 409.232 154.3 409.125 153.45C408.379 148.725 408.665 145.342 409.984 143.301C411.098 141.523 412.985 140.913 415.644 141.47C417.812 141.91 419.319 142.894 420.167 144.423C421.206 146.285 421.913 149.052 422.287 152.724L422.494 155.063L422.601 157.326C422.75 159.211 422.869 160.624 422.958 161.565ZM426.396 133.327C425.065 131.74 423.363 130.75 421.29 130.358C419.858 130.092 417.878 130.075 415.348 130.305C411.94 130.647 409.107 131.302 406.85 132.272C403.802 133.579 401.61 135.538 400.273 138.146C399.196 140.216 398.841 143.296 399.209 147.385C399.306 148.622 399.521 150.32 399.853 152.48L400.009 153.71L400.197 154.846C400.305 155.696 400.381 156.415 400.425 157.004L400.431 157.048L400.732 160.134L400.988 163.226L401.584 169.354C402.056 174.025 402.587 178.108 403.177 181.603L404.521 188.708C405.093 191.581 405.495 193.94 405.728 195.785C406.021 198.098 407.231 200.028 409.361 201.574C411.16 202.864 413.301 203.679 415.784 204.02C418.574 204.441 421.23 204.507 423.752 204.218C426.597 203.888 429.094 202.933 431.245 201.352C433.783 199.543 435.179 197.284 435.431 194.575C435.619 192.528 435.611 189.524 435.408 185.563C435.351 184.41 435.235 182.55 435.06 179.984L434.858 176.975C434.772 175.825 434.699 174.778 434.639 173.834C434.403 169.847 433.934 165.429 433.232 160.579C432.97 158.737 432.633 156.549 432.224 154.012L431.632 150.74L431.072 147.374L430.967 146.539L430.806 145.623L430.441 143.794C430.172 142.371 429.877 141.099 429.557 139.979C428.744 137.077 427.691 134.859 426.396 133.327Z" fill="white"/>
<path d="M432.892 128.579L432.975 129.238L433.052 129.496L433.102 129.891C433.427 131.754 433.699 133.669 433.917 135.634C434.18 137.714 434.326 138.751 434.355 138.748C435.033 138.692 435.825 138.606 436.733 138.492L437.87 138.303L439.1 138.148C440.743 137.97 441.748 138.036 442.115 138.347C442.382 138.581 442.671 139.452 442.98 140.96C443.139 141.743 443.292 142.721 443.44 143.892L443.862 146.873C443.969 147.485 444.48 150.708 445.396 156.542C445.895 159.782 446.329 162.508 446.698 164.723C447.208 168.05 447.68 171.085 448.116 173.826C450.58 189.789 451.739 197.78 451.592 197.798C452.269 197.742 453.214 197.682 454.426 197.619L455.936 197.562L457.49 197.499C459.943 197.368 461.875 197.123 463.288 196.766C463.116 196.818 462.536 193.053 461.548 185.472L460.527 177.39C460.249 174.956 460.084 173.533 460.032 173.124L459.641 168.264L459.299 163.443C458.997 159.405 458.707 156.169 458.43 153.735C458.2 151.681 457.723 148.736 457.001 144.9L456.176 140.497C455.907 138.835 455.689 137.346 455.522 136.028C458.363 135.669 461.194 135.237 464.016 134.731L463.848 132.342L463.686 129.998C463.551 128.23 463.353 126.663 463.092 125.298C463.069 125.122 458.825 125.554 450.358 126.595L447.942 126.9L445.521 127.161L441.04 127.728C438.017 128.05 436.179 128.223 435.527 128.246C434.96 128.228 434.081 128.339 432.892 128.579Z" fill="white"/>
<path d="M491.571 152.893C491.952 155.909 492.292 159.541 492.591 163.787C492.799 166.617 493.006 170.25 493.21 174.687L493.478 178.224C493.527 179.556 493.452 180.607 493.252 181.376C492.767 183.431 491.213 184.311 488.587 184.019C485.303 183.69 483.21 181.723 482.308 178.118C482.01 176.936 481.788 175.298 481.642 173.204L481.507 170.722C481.447 169.777 481.378 168.998 481.3 168.383C481.193 167.533 481.075 166.477 480.945 165.214L480.512 161.788C480.134 158.801 479.857 156.605 479.679 155.199C479.593 154.288 479.304 152.703 478.81 150.445L478.501 149.056L478.235 147.661C478.01 146.589 477.844 145.628 477.737 144.779C476.991 140.053 477.278 136.67 478.596 134.629C479.711 132.852 481.597 132.241 484.256 132.798C486.424 133.238 487.932 134.223 488.78 135.752C489.818 137.614 490.525 140.381 490.9 144.052L491.106 146.392L491.214 148.654C491.363 150.539 491.482 151.952 491.571 152.893ZM495.008 124.656C493.677 123.068 491.975 122.079 489.903 121.686C488.471 121.421 486.49 121.403 483.961 121.634C480.553 121.975 477.72 122.631 475.462 123.6C472.414 124.908 470.222 126.866 468.886 129.474C467.808 131.544 467.454 134.624 467.822 138.713C467.919 139.95 468.133 141.649 468.466 143.808L468.621 145.038L468.81 146.175C468.917 147.024 468.993 147.743 469.038 148.333L469.043 148.377L469.344 151.463L469.601 154.554L470.197 160.682C470.668 165.353 471.199 169.436 471.79 172.932L473.134 180.036C473.705 182.909 474.107 185.268 474.341 187.113C474.633 189.427 475.844 191.356 477.973 192.902C479.772 194.192 481.913 195.007 484.396 195.348C487.186 195.769 489.843 195.835 492.365 195.546C495.209 195.216 497.706 194.261 499.857 192.68C502.395 190.872 503.791 188.613 504.043 185.903C504.231 183.856 504.223 180.852 504.02 176.891C503.964 175.738 503.848 173.878 503.672 171.312L503.47 168.303C503.385 167.153 503.312 166.107 503.252 165.162C503.016 161.175 502.547 156.757 501.844 151.907C501.582 150.066 501.246 147.877 500.836 145.34L500.244 142.068L499.685 138.702L499.579 137.868L499.419 136.951L499.054 135.123C498.784 133.699 498.49 132.427 498.17 131.307C497.357 128.405 496.303 126.188 495.008 124.656Z" fill="white"/>
<path d="M272.134 138.948L274.316 138.693C276.208 138.471 277.651 138.332 278.647 138.275C278.909 138.244 279.113 138.22 279.258 138.203L279.608 138.163C279.811 138.139 280.12 138.132 280.534 138.144C281.036 138.145 281.707 138.081 282.547 137.953L282.492 137.106L282.388 136.219C282.34 135.805 282.303 135.24 282.278 134.524L282.163 132.785C282.137 132.309 282.074 131.777 281.976 131.189L281.615 129.614C281.537 129.204 281.439 128.496 281.322 127.491C281.28 127.136 281.25 126.751 281.23 126.333C281.192 126.008 281.156 125.698 281.121 125.403C281.046 124.513 280.909 123.465 280.709 122.26L280.209 119.128L279.442 113.331L280.054 112.136L280.704 110.891C281.157 109.97 281.508 109.194 281.759 108.566L282.002 107.998C283.31 110.601 285.034 114.114 287.174 118.537L289.738 123.809L292.346 129.076C292.54 129.472 292.805 129.966 293.139 130.556L293.97 131.986C294.639 133.166 295.07 134.194 295.261 135.071C297.013 134.925 299.225 134.666 301.894 134.293L305.152 133.777L308.464 133.344C308.204 132.386 307.584 131.245 306.603 129.922L305.98 129.141L305.402 128.355C304.976 127.746 304.631 127.187 304.365 126.679C303.007 123.902 301.116 120.603 298.693 116.783C297.792 115.391 296.728 113.358 295.501 110.686L294.036 107.622C293.458 106.461 292.909 105.432 292.391 104.534C291.956 103.836 291.484 102.963 290.978 101.913L289.696 99.2775C289.466 98.825 289.132 98.2351 288.692 97.5076C288.174 96.6096 287.654 95.8168 287.131 95.1291C287.718 93.5924 288.264 92.0903 288.771 90.6229L289.625 88.0961L290.474 85.5251C291.147 83.4689 291.748 81.7958 292.275 80.5057C292.64 79.5941 293.676 76.4769 295.382 71.154C297.111 65.7686 297.932 63.081 297.844 63.0912L295.036 63.2855C293.952 63.3525 293.032 63.4303 292.276 63.5189L290.923 63.6774L289.56 63.7472C288.36 63.8279 287.456 63.9188 286.849 64.0199C286.499 64.0608 286.268 64.2227 286.153 64.5058C286.135 64.5978 286.107 64.7359 286.069 64.9201L285.908 65.4333C285.842 65.6208 285.787 65.9118 285.745 66.3062L285.577 67.1348L285.083 68.5857C284.861 69.2109 284.713 69.7076 284.638 70.0759L283.079 75.6511C282.474 77.7891 281.938 79.6345 281.471 81.1871C280.193 85.3813 278.894 89.0237 277.575 92.1142C277.308 89.3293 277.033 86.7252 276.749 84.3019L275.797 75.4257C275.414 71.9054 275.025 68.9552 274.628 66.575C274.54 66.5853 273.753 66.6625 272.266 66.8068C271.477 66.8693 270.777 66.9363 270.166 67.0079C269.319 67.0772 268.531 67.1544 267.804 67.2396C263.666 67.6645 261.608 67.9804 261.633 68.1873C261.975 73.1204 262.599 79.2038 263.505 86.4375L264.706 95.5542C265.171 99.2745 265.542 102.317 265.819 104.681C266.013 106.336 266.258 108.674 266.553 111.695C267.423 121.39 268.554 130.545 269.947 139.159L272.134 138.948Z" fill="white"/>
<path d="M328.53 90.5039C328.886 93.5479 329.197 97.2113 329.463 101.494C329.65 104.348 329.829 108.012 329.999 112.486L330.24 116.053C330.279 117.397 330.197 118.455 329.992 119.228C329.497 121.293 327.947 122.164 325.343 121.84C322.085 121.472 320.022 119.467 319.153 115.824C318.865 114.63 318.657 112.976 318.527 110.864L318.411 108.361C318.358 107.409 318.296 106.622 318.223 106.002C318.123 105.145 318.013 104.079 317.893 102.805L317.488 99.3471C317.135 96.3326 316.875 94.1162 316.709 92.6976C316.63 91.778 316.354 90.1776 315.881 87.8963L315.584 86.4931L315.33 85.0848C315.115 84.0015 314.957 83.0314 314.857 82.1743C314.15 77.4037 314.459 73.9972 315.783 71.9547C316.902 70.1759 318.779 69.5815 321.414 70.1716C323.563 70.6388 325.052 71.6477 325.883 73.1981C326.9 75.0862 327.582 77.8824 327.927 81.5868L328.115 83.9465L328.206 86.2278C328.34 88.1294 328.448 89.5548 328.53 90.5039ZM332.146 62.0837C330.836 60.4695 329.154 59.4533 327.099 59.0349C325.68 58.7518 323.714 58.7125 321.201 58.9169C317.816 59.2237 314.999 59.8532 312.751 60.8056C309.716 62.0899 307.526 64.0391 306.181 66.6534C305.097 68.7277 304.722 71.8274 305.058 75.9523C305.145 77.2004 305.346 78.9145 305.661 81.0946L305.806 82.3358L305.985 83.4833C306.085 84.3403 306.155 85.0661 306.195 85.6606L306.201 85.7049L306.477 88.8182L306.71 91.9367L307.257 98.119C307.691 102.832 308.188 106.953 308.749 110.482L310.032 117.657C310.579 120.558 310.961 122.94 311.179 124.802C311.453 127.137 312.641 129.095 314.743 130.676C316.52 131.996 318.639 132.841 321.101 133.212C323.868 133.667 326.504 133.762 329.01 133.499C331.835 133.197 334.321 132.262 336.467 130.693C339 128.898 340.401 126.637 340.672 123.909C340.873 121.848 340.887 118.82 340.714 114.826C340.666 113.663 340.564 111.788 340.409 109.2L340.23 106.165C340.153 105.005 340.088 103.949 340.036 102.997C339.83 98.9765 339.397 94.5186 338.735 89.6229C338.487 87.7645 338.169 85.5548 337.781 82.9939L337.217 79.6896L336.686 76.2915L336.587 75.4493L336.435 74.5235L336.086 72.6769C335.829 71.2391 335.546 69.954 335.236 68.8219C334.45 65.8882 333.42 63.6421 332.146 62.0837Z" fill="white"/>
<path d="M338.628 57.3697L338.706 58.0347L338.781 58.2955L338.828 58.6945C339.136 60.5757 339.392 62.508 339.595 64.4915C339.841 66.5898 339.978 67.6372 340.008 67.6338C340.68 67.585 341.467 67.5077 342.369 67.402L343.499 67.2248L344.721 67.0816C346.354 66.9203 347.351 66.9982 347.712 67.3154C347.976 67.5541 348.257 68.435 348.553 69.9581C348.705 70.7493 348.85 71.7359 348.988 72.918L349.385 75.9273C349.487 76.5445 349.971 79.7982 350.838 85.6885C351.31 88.9586 351.721 91.7116 352.071 93.9475C352.553 97.3063 353 100.37 353.413 103.137C355.743 119.252 356.836 127.318 356.69 127.335C357.363 127.286 358.301 127.236 359.504 127.185L361.004 127.144L362.547 127.098C364.982 126.992 366.903 126.768 368.307 126.423C368.136 126.473 367.588 122.673 366.662 115.022L365.707 106.865C365.448 104.409 365.295 102.974 365.246 102.56L364.893 97.6582L364.589 92.7955C364.319 88.7229 364.054 85.4584 363.796 83.0021C363.583 80.9299 363.131 77.957 362.441 74.0832L361.655 69.6366C361.399 67.9588 361.194 66.455 361.038 65.1251C363.86 64.7945 366.674 64.39 369.479 63.9116L369.329 61.5025L369.185 59.1376C369.064 57.3542 368.879 55.7731 368.629 54.3943C368.608 54.217 364.392 54.6061 355.98 55.5616L353.58 55.8428L351.174 56.0797L346.723 56.6012C343.719 56.8931 341.894 57.0471 341.247 57.0629C340.683 57.039 339.811 57.1413 338.628 57.3697Z" fill="white"/>
<path d="M388.383 96.8836L388.494 92.9161C388.51 92.0455 388.621 90.9838 388.828 89.7312L389.127 88.1235L389.376 86.4764C389.831 83.8167 389.935 81.6775 389.686 80.0589C390.481 80.8046 391.166 82.1175 391.74 83.9975L392.104 85.2132L392.375 86.3948C392.631 87.3234 392.847 88.0321 393.022 88.5209C393.319 89.295 393.697 90.2543 394.156 91.399L395.322 94.1833C396.2 96.3873 396.823 98.3066 397.191 99.9411C395.961 100.265 394.499 100.496 392.804 100.635L390.563 100.763L388.317 100.846L388.383 96.8836ZM398.553 65.4937C398.481 65.3823 398.358 65.0822 398.182 64.5934L398.048 64.2047L397.871 63.821C397.742 63.4766 397.631 63.16 397.538 62.8713C397.241 62.0973 396.964 61.3658 396.706 60.677C396.369 59.8176 396.056 59.0305 395.766 58.3155C394.122 54.1041 393.199 52.0103 392.995 52.0342C392.7 52.0387 392.246 52.062 391.632 52.104L390.748 52.1176L389.778 52.1414C388.106 52.2175 386.689 52.3385 385.529 52.5044C381.925 52.9566 379.773 53.8527 379.075 55.1928C378.788 55.7657 378.672 56.6631 378.727 57.885L378.766 58.5994L378.811 59.3581C378.848 59.923 378.854 60.3566 378.831 60.659L378.402 66.8208L377.881 72.9485C377.445 78.0327 377.157 82.1258 377.019 85.2278L376.579 94.3119C376.226 100.105 375.856 105.511 375.471 110.53C375.245 113.133 375 115.828 374.737 118.615L374.326 122.662L374.222 123.663L374.113 124.62L374.062 124.94L373.929 125.315C373.844 125.595 373.826 125.822 373.876 125.996C374.167 125.961 374.549 125.947 375.021 125.951L376.171 125.951C377.077 125.875 378.326 125.714 379.919 125.467L381.791 125.203L383.667 124.983L385.429 124.912C386.13 124.86 386.714 124.806 387.18 124.752C387.215 124.298 387.196 123.761 387.124 123.14L386.986 122.348L386.893 121.55C386.756 120.128 386.767 118.464 386.927 116.557L387.204 114.008L387.573 111.494C388.042 111.469 388.737 111.357 389.657 111.16L390.694 110.948C391.069 110.874 391.402 110.82 391.693 110.786L393.357 110.636L395.025 110.531C396.371 110.433 397.475 110.289 398.337 110.098L398.899 109.987L399.467 109.921C399.958 109.833 400.347 109.757 400.635 109.694C400.896 110.412 401.11 111.106 401.277 111.776L401.917 114.217L402.518 116.708L402.8 117.978L403.076 119.204C403.129 119.408 403.235 119.68 403.393 120.021L403.57 120.405L403.71 120.838C403.789 121.008 403.845 121.241 403.88 121.537L403.968 122.29C404.641 122.242 405.585 122.116 406.8 121.914L408.191 121.706L409.631 121.537L410.946 121.428L412.309 121.358C413.36 121.265 414.242 121.117 414.956 120.913C414.809 119.912 414.564 118.697 414.219 117.27L413.739 115.439L413.265 113.652C408.7 94.833 403.797 78.7803 398.553 65.4937Z" fill="white"/>
<path class="guitar" d="M255.806 31.0915C255.419 24.4302 261.07 22.2209 264.339 19.2186C254.07 15.6995 273.84 10.7895 265.943 19.4894C270.292 19.9808 275.662 17.5065 269.555 14.1118C276.198 6.72822 274.872 16.2357 275.102 17.3542C281.162 16.1377 283.23 14.9352 278.049 11.2891C282.569 5.4329 285.451 11.2552 283.071 14.8682C288.299 13.7383 292.516 12.1867 286.495 9.02103C291.767 1.28811 292.584 10.5654 292.212 12.0625C298.513 10.7533 299.398 9.52222 295.092 5.76383C301.359 -1.0403 300.394 8.18669 300.872 9.31913C307.518 8.01111 307.825 6.73254 303.898 2.74174C309.778 -2.88171 310.212 4.05746 308.749 7.11309C327.612 1.4635 321.472 33.3259 305.998 23.9912C295.116 23.7948 290.962 39.9982 280.916 43.7255C267.575 34.4486 256.035 52.1594 244.935 57.5681C206.325 84.743 167.702 111.899 129.08 139.057C125.696 156.441 147.241 159.174 158.637 152.672C169.594 160.691 153.037 174.197 143.911 176.006C132.255 179.82 117.942 180.434 111.071 192.3C101.726 210.613 89.7375 230.935 68.9239 237.514C49.6356 242.457 32.6377 227.174 23.7382 211.556C12.6632 194.464 -3.77266 175.836 1.92959 153.862C4.87469 138.701 18.9009 130.039 32.7017 126.002C50.0856 118.739 72.7443 121.268 85.333 104.981C96.5489 92.604 106.223 75.1881 123.877 71.7444C140.588 70.2197 134.362 85.3054 124.559 89.9739C116.548 96.7234 121.67 117.956 133.511 111.589C174.276 84.7562 215.041 57.9238 255.806 31.0915Z" fill="white"/>
</svg>
