<svg width="556" height="56" viewBox="0 0 556 56" fill="none" xmlns="http://www.w3.org/2000/svg">
<path d="M0.23999 3.67199H12.984V24.552L30.336 3.67199H45.456L25.08 28.152L46.824 54H31.704L12.984 31.752V54H0.23999V3.67199Z" fill="white"/>
<path d="M66.3073 55.08C62.0353 55.08 58.2913 54.312 55.0753 52.776C51.8593 51.192 49.3633 49.032 47.5873 46.296C45.8593 43.512 44.9953 40.32 44.9953 36.72C44.9953 33.12 45.8593 29.952 47.5873 27.216C49.3633 24.432 51.8593 22.272 55.0753 20.736C58.2913 19.152 62.0353 18.36 66.3073 18.36C70.5793 18.36 74.3233 19.152 77.5393 20.736C80.7553 22.272 83.2273 24.432 84.9553 27.216C86.7313 29.952 87.6193 33.12 87.6193 36.72C87.6193 40.32 86.7313 43.512 84.9553 46.296C83.2273 49.032 80.7553 51.192 77.5393 52.776C74.3233 54.312 70.5793 55.08 66.3073 55.08ZM66.3073 45.216C68.8513 45.216 70.8673 44.472 72.3553 42.984C73.8913 41.448 74.6593 39.36 74.6593 36.72C74.6593 34.08 73.8913 32.016 72.3553 30.528C70.8673 28.992 68.8513 28.224 66.3073 28.224C63.7633 28.224 61.7233 28.992 60.1873 30.528C58.6993 32.016 57.9553 34.08 57.9553 36.72C57.9553 39.36 58.6993 41.448 60.1873 42.984C61.7233 44.472 63.7633 45.216 66.3073 45.216Z" fill="white"/>
<path d="M106.552 55.08C102.28 55.08 99.0399 53.904 96.8319 51.552C94.6719 49.152 93.5919 45.888 93.5919 41.76V28.224H88.6959V19.44H93.5919V9.07199H106.264V19.44H114.184V28.224H106.264V40.032C106.264 41.904 106.6 43.248 107.272 44.064C107.992 44.88 109.24 45.288 111.016 45.288C112.6 45.288 114.184 44.856 115.768 43.992V53.424C114.52 54 113.176 54.408 111.736 54.648C110.344 54.936 108.616 55.08 106.552 55.08Z" fill="white"/>
<path d="M131.327 55.08C127.007 55.08 123.503 54.048 120.815 51.984C118.175 49.872 116.855 46.944 116.855 43.2C116.855 39.312 118.127 36.336 120.671 34.272C123.263 32.16 126.959 31.104 131.759 31.104C133.631 31.104 135.503 31.32 137.375 31.752C139.247 32.136 140.855 32.664 142.199 33.336V32.616C142.199 28.92 139.175 27.072 133.127 27.072C128.903 27.072 125.039 27.888 121.535 29.52V20.808C123.071 20.088 125.087 19.512 127.583 19.08C130.079 18.6 132.671 18.36 135.359 18.36C141.791 18.36 146.639 19.656 149.903 22.248C153.215 24.792 154.871 28.368 154.871 32.976V54H142.991V51.048C141.695 52.296 140.063 53.28 138.095 54C136.127 54.72 133.871 55.08 131.327 55.08ZM135.071 47.304C136.559 47.304 137.951 47.016 139.247 46.44C140.543 45.816 141.527 45.024 142.199 44.064V41.04C140.135 39.648 137.783 38.952 135.143 38.952C133.463 38.952 132.167 39.312 131.255 40.032C130.343 40.752 129.887 41.808 129.887 43.2C129.887 44.496 130.319 45.504 131.183 46.224C132.095 46.944 133.391 47.304 135.071 47.304Z" fill="white"/>
<path d="M185.443 3.67199H198.187V23.112H217.915V3.67199H230.659V54H217.915V33.696H198.187V54H185.443V3.67199Z" fill="white"/>
<path d="M250.155 55.08C245.835 55.08 242.331 54.048 239.643 51.984C237.003 49.872 235.683 46.944 235.683 43.2C235.683 39.312 236.955 36.336 239.499 34.272C242.091 32.16 245.787 31.104 250.587 31.104C252.459 31.104 254.331 31.32 256.203 31.752C258.075 32.136 259.683 32.664 261.027 33.336V32.616C261.027 28.92 258.003 27.072 251.955 27.072C247.731 27.072 243.867 27.888 240.363 29.52V20.808C241.899 20.088 243.915 19.512 246.411 19.08C248.907 18.6 251.499 18.36 254.187 18.36C260.619 18.36 265.467 19.656 268.731 22.248C272.043 24.792 273.699 28.368 273.699 32.976V54H261.819V51.048C260.523 52.296 258.891 53.28 256.923 54C254.955 54.72 252.699 55.08 250.155 55.08ZM253.899 47.304C255.387 47.304 256.779 47.016 258.075 46.44C259.371 45.816 260.355 45.024 261.027 44.064V41.04C258.963 39.648 256.611 38.952 253.971 38.952C252.291 38.952 250.995 39.312 250.083 40.032C249.171 40.752 248.715 41.808 248.715 43.2C248.715 44.496 249.147 45.504 250.011 46.224C250.923 46.944 252.219 47.304 253.899 47.304Z" fill="white"/>
<path d="M293.652 55.08C290.868 55.08 287.964 54.792 284.94 54.216C281.916 53.688 279.516 52.92 277.74 51.912V42.624C279.708 43.776 282.06 44.736 284.796 45.504C287.58 46.224 290.124 46.584 292.428 46.584C294.108 46.584 295.332 46.464 296.1 46.224C296.868 45.984 297.252 45.504 297.252 44.784C297.252 44.208 296.988 43.752 296.46 43.416C295.98 43.032 295.068 42.648 293.724 42.264C292.428 41.832 290.916 41.376 289.188 40.896C286.26 40.032 283.956 39.144 282.276 38.232C280.596 37.32 279.348 36.168 278.532 34.776C277.716 33.384 277.308 31.632 277.308 29.52C277.308 25.776 278.772 22.992 281.7 21.168C284.676 19.296 288.732 18.36 293.868 18.36C296.364 18.36 298.98 18.624 301.716 19.152C304.5 19.68 306.588 20.376 307.98 21.24V30.384C306.54 29.424 304.62 28.632 302.22 28.008C299.868 27.384 297.66 27.072 295.596 27.072C293.964 27.072 292.692 27.24 291.78 27.576C290.868 27.864 290.412 28.392 290.412 29.16C290.412 29.88 290.868 30.432 291.78 30.816C292.692 31.2 294.324 31.68 296.676 32.256C298.212 32.64 298.86 32.808 298.62 32.76C301.692 33.576 304.068 34.488 305.748 35.496C307.428 36.504 308.604 37.704 309.276 39.096C309.996 40.44 310.356 42.168 310.356 44.28C310.356 47.592 308.916 50.232 306.036 52.2C303.204 54.12 299.076 55.08 293.652 55.08Z" fill="white"/>
<path d="M315.381 0.791992H328.053V22.968C329.589 21.432 331.341 20.28 333.309 19.512C335.325 18.744 337.437 18.36 339.645 18.36C344.493 18.36 348.069 19.632 350.373 22.176C352.725 24.672 353.901 28.08 353.901 32.4V54H341.229V34.056C341.229 30.168 339.453 28.224 335.901 28.224C334.269 28.224 332.781 28.608 331.437 29.376C330.093 30.096 328.965 31.224 328.053 32.76V54H315.381V0.791992Z" fill="white"/>
<path d="M366.797 14.832C364.877 14.832 363.269 14.208 361.973 12.96C360.677 11.712 360.029 10.128 360.029 8.20799C360.029 6.33599 360.677 4.77599 361.973 3.52799C363.269 2.23199 364.877 1.58399 366.797 1.58399C368.669 1.58399 370.253 2.23199 371.549 3.52799C372.893 4.77599 373.565 6.33599 373.565 8.20799C373.565 10.08 372.893 11.664 371.549 12.96C370.253 14.208 368.669 14.832 366.797 14.832ZM360.461 19.44H373.133V54H360.461V19.44Z" fill="white"/>
<path d="M380.068 19.44H391.804V23.184C393.244 21.648 394.9 20.472 396.772 19.656C398.644 18.792 400.636 18.36 402.748 18.36C405.34 18.36 407.404 18.744 408.94 19.512C410.524 20.28 411.796 21.432 412.756 22.968C414.196 21.528 415.948 20.4 418.012 19.584C420.076 18.768 422.164 18.36 424.276 18.36C428.836 18.36 432.076 19.536 433.996 21.888C435.916 24.192 436.876 27.528 436.876 31.896V54H424.78V33.696C424.78 31.776 424.42 30.384 423.7 29.52C422.98 28.656 421.78 28.224 420.1 28.224C417.94 28.224 416.188 28.992 414.844 30.528C414.892 31.344 414.916 32.592 414.916 34.272V54H402.82V33.192C402.82 31.416 402.508 30.144 401.884 29.376C401.26 28.608 400.156 28.224 398.572 28.224C396.124 28.224 394.012 29.592 392.236 32.328V54H380.068V19.44Z" fill="white"/>
<path d="M461.815 55.08C457.543 55.08 453.799 54.312 450.583 52.776C447.367 51.192 444.871 49.032 443.095 46.296C441.367 43.512 440.503 40.32 440.503 36.72C440.503 33.12 441.367 29.952 443.095 27.216C444.871 24.432 447.367 22.272 450.583 20.736C453.799 19.152 457.543 18.36 461.815 18.36C466.087 18.36 469.831 19.152 473.047 20.736C476.263 22.272 478.735 24.432 480.463 27.216C482.239 29.952 483.127 33.12 483.127 36.72C483.127 40.32 482.239 43.512 480.463 46.296C478.735 49.032 476.263 51.192 473.047 52.776C469.831 54.312 466.087 55.08 461.815 55.08ZM461.815 45.216C464.359 45.216 466.375 44.472 467.863 42.984C469.399 41.448 470.167 39.36 470.167 36.72C470.167 34.08 469.399 32.016 467.863 30.528C466.375 28.992 464.359 28.224 461.815 28.224C459.271 28.224 457.231 28.992 455.695 30.528C454.207 32.016 453.463 34.08 453.463 36.72C453.463 39.36 454.207 41.448 455.695 42.984C457.231 44.472 459.271 45.216 461.815 45.216Z" fill="white"/>
<path d="M502.06 55.08C497.788 55.08 494.548 53.904 492.34 51.552C490.18 49.152 489.1 45.888 489.1 41.76V28.224H484.204V19.44H489.1V9.07199H501.772V19.44H509.692V28.224H501.772V40.032C501.772 41.904 502.108 43.248 502.78 44.064C503.5 44.88 504.748 45.288 506.524 45.288C508.108 45.288 509.692 44.856 511.276 43.992V53.424C510.028 54 508.684 54.408 507.244 54.648C505.852 54.936 504.124 55.08 502.06 55.08Z" fill="white"/>
<path d="M534.378 55.08C530.106 55.08 526.362 54.312 523.146 52.776C519.93 51.192 517.434 49.032 515.658 46.296C513.93 43.512 513.066 40.32 513.066 36.72C513.066 33.12 513.93 29.952 515.658 27.216C517.434 24.432 519.93 22.272 523.146 20.736C526.362 19.152 530.106 18.36 534.378 18.36C538.65 18.36 542.394 19.152 545.61 20.736C548.826 22.272 551.298 24.432 553.026 27.216C554.802 29.952 555.69 33.12 555.69 36.72C555.69 40.32 554.802 43.512 553.026 46.296C551.298 49.032 548.826 51.192 545.61 52.776C542.394 54.312 538.65 55.08 534.378 55.08ZM534.378 45.216C536.922 45.216 538.938 44.472 540.426 42.984C541.962 41.448 542.73 39.36 542.73 36.72C542.73 34.08 541.962 32.016 540.426 30.528C538.938 28.992 536.922 28.224 534.378 28.224C531.834 28.224 529.794 28.992 528.258 30.528C526.77 32.016 526.026 34.08 526.026 36.72C526.026 39.36 526.77 41.448 528.258 42.984C529.794 44.472 531.834 45.216 534.378 45.216Z" fill="white"/>
</svg>
