<svg width="110" height="25" viewBox="0 0 110 25" fill="none" xmlns="http://www.w3.org/2000/svg">
<path d="M5.1778 14.1222L5.57049 14.4702L5.94916 14.832C6.22966 15.101 6.46808 15.3562 6.66442 15.5974C7.40306 16.6179 7.72563 17.6199 7.63213 18.6033C7.61343 19.0764 7.48253 19.4244 7.23944 19.647C6.98699 19.879 6.65975 19.9439 6.25771 19.8418C5.48167 19.647 5.0656 19.2759 5.00951 18.7285V18.3528C5.00016 18.1209 4.99548 17.8982 4.99548 17.6848C5.08898 17.0725 5.10768 16.7571 5.05158 16.7385C4.83653 16.8127 4.55136 16.8452 4.19607 16.8359L3.7613 16.822H3.59301L2.47103 16.8638L2.03626 16.9055C1.67162 16.9333 1.38645 16.9473 1.18075 16.9473V18.1858C1.18075 18.6682 1.1714 19.0811 1.1527 19.4244C1.09661 20.0831 1.19945 20.6583 1.46125 21.15C1.93809 22.7828 3.20032 23.757 5.24793 24.0724C6.15486 24.2394 6.93089 24.309 7.57603 24.2811C8.28662 24.2348 8.92241 24.0075 9.4834 23.5992C9.89479 23.3024 10.2641 22.8199 10.5913 22.1519C10.9092 21.4932 11.0775 21.0758 11.0962 20.8995L11.1103 20.148V19.3687C11.1103 18.7749 11.0916 18.2461 11.0542 17.7822C10.9513 16.5762 10.7222 15.5695 10.367 14.7624C10.0491 14.0295 9.52547 13.2965 8.79618 12.5636C8.53439 12.3039 8.29597 11.9977 8.08092 11.6451L7.57603 11.2137L7.08517 10.7823C6.13148 9.9288 5.48635 9.07991 5.14975 8.23566C5.07495 8.03155 5.00016 7.79497 4.92536 7.52592C4.76641 6.92289 4.85056 6.50076 5.1778 6.25954C5.52375 6.00905 5.90241 6.01369 6.31381 6.27346C6.52885 6.40334 6.69715 6.62137 6.8187 6.92752C6.89349 7.13163 6.95894 7.2476 7.01504 7.27543L7.04309 7.9295L7.33761 7.91558L7.63213 7.88775C7.89393 7.85992 8.09495 7.85064 8.23519 7.85992H9.16083C9.42262 7.85992 9.67039 7.85528 9.90414 7.846H10.2407C10.2407 7.49345 10.2267 7.05741 10.1987 6.53787L10.1426 5.8838L10.1005 5.21582C10.0537 4.64061 9.93219 4.07468 9.73584 3.51803C9.2029 2.03363 8.09962 1.25896 6.426 1.19401H5.66867C5.33207 1.19401 5.01418 1.21257 4.71499 1.24968C3.9109 1.33318 3.32186 1.51873 2.94787 1.80633C2.30273 2.13104 1.76979 2.69233 1.34905 3.4902C0.947009 4.26024 0.774037 4.82153 0.830136 5.17407C0.839486 5.31323 0.848835 5.48951 0.858185 5.70289L0.87221 5.99513L0.886235 6.30129C0.914284 6.82083 0.947008 7.2476 0.984408 7.58159C1.07791 8.6114 1.2462 9.37215 1.4893 9.86386C1.71369 10.3185 2.9432 11.7379 5.1778 14.1222Z" fill="white"/>
<path d="M22.1477 1.05485C21.6896 0.739414 21.0772 0.577057 20.3105 0.56778H19.8196L19.3147 0.581696C18.9033 0.600251 18.5808 0.60489 18.347 0.595612C16.7202 0.493559 15.4813 0.841467 14.6305 1.63933C14.0414 2.18671 13.6768 2.96602 13.5365 3.97727C13.4804 4.34837 13.4477 4.79369 13.4384 5.31323V5.98122L13.4524 6.62137C13.4617 7.22441 13.4524 7.9063 13.4243 8.66706L13.3542 10.7267C13.2794 12.5358 13.2467 13.9042 13.256 14.832C13.2654 15.1381 13.2607 15.5417 13.242 16.0427L13.228 16.6689L13.1999 17.323C13.1812 18.3714 13.228 19.2295 13.3402 19.8975C13.6487 21.8272 14.6211 23.0519 16.2573 23.5714C17.4074 23.9332 18.5434 24.0863 19.6654 24.0306C21.0678 23.9657 22.0823 23.5529 22.7087 22.7921C22.9799 22.4767 23.2323 21.4469 23.4661 19.7027C23.7185 17.9307 23.6811 17.0308 23.3539 17.0029C23.1201 16.9844 22.8256 16.9797 22.4703 16.989L22.0355 17.0029C21.8766 17.0029 21.727 17.0029 21.5867 17.0029C21.4839 17.0029 21.3577 16.9936 21.2081 16.9751L20.8715 16.9612C20.619 16.9519 20.3759 16.9658 20.1422 17.0029C20.1235 17.0957 20.1048 17.2488 20.0861 17.4622L20.058 17.7544L20.03 18.0745C19.9645 18.6311 19.871 19.0672 19.7495 19.3826C19.3475 20.3567 18.5293 20.4774 17.2952 19.7444C16.809 19.4475 16.5378 18.8631 16.4817 17.991C16.463 17.7312 16.463 17.3601 16.4817 16.8777L16.4958 16.6133V16.3489C16.5051 16.1633 16.5051 16.0056 16.4958 15.8757C16.4397 14.8644 16.4397 13.4357 16.4958 11.5895L16.5238 10.5179L16.5519 9.44637C16.5612 8.64851 16.5565 7.93414 16.5378 7.30326C16.4911 6.24563 16.636 5.46168 16.9726 4.95141C17.4027 4.29271 18.1413 4.12107 19.1885 4.43651C19.8991 4.65917 20.3339 5.14624 20.4928 5.89772C20.5583 6.16677 20.591 6.5054 20.591 6.91361V7.44243C20.591 7.66509 20.591 7.83208 20.591 7.94341L20.9977 7.97125L21.4184 7.98516C21.7644 7.99444 22.0355 8.00836 22.2319 8.02691C22.2693 8.03619 22.3628 8.05474 22.5124 8.08258L22.6947 8.11041L22.877 8.13824C23.1949 8.18463 23.4053 8.16144 23.5081 8.06866C23.6484 7.95733 23.7091 7.69756 23.6904 7.28935V7.03885L23.6624 6.78836C23.653 6.60281 23.6484 6.46365 23.6484 6.37087L23.6904 5.66114L23.7185 4.92358C23.7185 4.3762 23.6811 3.89377 23.6063 3.47628C23.4193 2.40009 22.9331 1.59295 22.1477 1.05485Z" fill="white"/>
<path d="M33.648 1.79241L33.4517 1.7785L33.2273 1.76458C32.8533 1.74603 32.6663 1.74139 32.6663 1.75066C32.6289 2.09393 32.6289 2.57173 32.6663 3.18404C32.6943 3.7778 32.7037 4.4597 32.6943 5.22974L32.6523 6.25954L32.6242 7.28935C32.5681 8.64387 32.5354 10.1144 32.526 11.7008C31.0862 11.5988 30.0904 11.5524 29.5388 11.5616L29.5949 9.00105L29.665 6.44045C29.7117 4.42723 29.7024 2.72017 29.6369 1.31926C29.6369 1.28215 28.9965 1.30998 27.7155 1.40276C26.444 1.48625 25.8035 1.5512 25.7942 1.59759C25.71 3.12838 25.6633 5.03491 25.6539 7.31718V10.1839C25.6539 11.3436 25.6492 12.2946 25.6399 13.0368C25.6399 13.5841 25.6165 14.3217 25.5698 15.2495L25.5137 16.8081L25.4576 18.3806C25.4389 19.5682 25.4809 20.6119 25.5838 21.5118L25.6539 21.971C25.682 22.1659 25.696 22.3236 25.696 22.4442C25.7053 22.4535 25.71 22.5184 25.71 22.639V22.973C25.7194 23.2884 25.7287 23.4462 25.7381 23.4462C25.8316 23.4647 25.9625 23.4694 26.1308 23.4601L26.3411 23.4322L26.5375 23.4183C26.7899 23.4091 27.0891 23.4091 27.4351 23.4183L27.8838 23.4462L28.3326 23.4879H28.6412C28.7066 23.4879 28.8048 23.4972 28.9357 23.5157C29.0946 23.5343 29.3097 23.5389 29.5808 23.5297L29.5949 23.2652V23.0008L29.6089 21.1917L29.6369 19.3826C29.6463 17.991 29.6276 16.7849 29.5808 15.7644L29.5388 14.4841L31.0534 14.6232C31.6331 14.6789 32.1333 14.7206 32.5541 14.7485L32.6102 16.5437L32.6663 18.325C32.713 19.8279 32.7411 21.0154 32.7504 21.8875L32.7364 22.3468L32.7224 22.8199C32.713 23.2096 32.713 23.525 32.7224 23.7662H33.3675C33.4891 23.7662 33.5872 23.7709 33.662 23.7802L33.7322 23.7941H33.8023C33.8864 23.8126 34.0313 23.8173 34.237 23.808C34.2557 23.808 34.3586 23.8126 34.5456 23.8219H34.6718L34.8121 23.8358H35.0926C35.5974 23.8544 35.8546 23.8497 35.8639 23.8219C36.3408 20.8253 36.5371 17.2117 36.453 12.9811C36.4249 11.4874 36.3595 9.64584 36.2566 7.45634L36.1865 6.09255L36.1164 4.74267C36.0603 3.62936 36.0135 2.73408 35.9761 2.05682C35.4058 1.91766 34.7139 1.83416 33.9005 1.80633C33.8724 1.80633 33.7883 1.80169 33.648 1.79241Z" fill="white"/>
<path d="M42.8623 4.45042C45.0221 4.47826 46.5508 4.47362 47.4483 4.43651L47.5044 3.68503L47.5465 2.94747C47.5839 2.39081 47.5933 1.88983 47.5746 1.44451C47.5746 1.42595 47.3829 1.4074 46.9996 1.38884C46.878 1.38884 46.7378 1.3842 46.5788 1.37492C46.5227 1.37492 46.4666 1.37492 46.4105 1.37492C46.3731 1.37492 46.3404 1.37492 46.3123 1.37492C45.7514 1.35637 45.1202 1.33781 44.419 1.31926C43.643 1.3007 43.0072 1.29143 42.5116 1.29143L41.9506 1.31926L41.3756 1.34709C40.8894 1.3842 40.5155 1.40276 40.2537 1.40276C39.7768 1.39348 39.4776 1.41203 39.3561 1.45842C39.1317 1.56047 39.0148 1.80633 39.0055 2.19599C38.9868 2.81758 38.9868 3.5505 39.0055 4.39476L39.0475 5.50806L39.0756 6.60745C39.113 7.97125 39.1083 9.87314 39.0616 12.3131C38.9868 15.7829 38.9447 18.7517 38.9353 21.2196L38.9494 21.7901L38.9634 22.3746C38.9821 22.8663 38.9868 23.2467 38.9774 23.5157C40.0807 23.5807 41.0905 23.576 42.0067 23.5018C42.5397 23.4647 43.297 23.4925 44.2788 23.5853L44.8538 23.6271L45.4288 23.6827C45.8495 23.7106 46.2235 23.7198 46.5508 23.7106C47.1211 23.692 47.4437 23.6132 47.5185 23.474C47.5372 23.4369 47.5278 23.089 47.4904 22.4303C47.4811 22.2447 47.4811 22.0313 47.4904 21.7901L47.5325 21.1639C47.5605 20.598 47.5699 20.1712 47.5605 19.8836C46.9435 19.8094 46.116 19.814 45.0782 19.8975L44.433 19.9532L43.8019 20.0088C43.3064 20.0552 42.9043 20.0831 42.5958 20.0923C42.4462 19.4986 42.3807 18.7471 42.3994 17.8379L42.4135 17.2534L42.4415 16.6828C42.4602 16.2097 42.4696 15.834 42.4696 15.5556C42.4696 14.7114 42.4789 13.8949 42.4976 13.1064C42.881 13.0692 43.2549 13.0507 43.6196 13.0507C43.7598 13.0507 43.9141 13.0507 44.0824 13.0507L44.5172 13.0646C45.2652 13.0832 45.929 13.06 46.5087 12.995C46.5367 12.6239 46.5414 12.1508 46.5227 11.5756L46.5087 11.2277L46.4947 10.8798C46.4947 10.62 46.4993 10.3695 46.5087 10.1283C45.6579 10.1004 44.3629 10.1236 42.6238 10.1979C42.6332 10.003 42.6472 9.78964 42.6659 9.5577L42.694 8.98714C42.722 8.51398 42.7454 8.10577 42.7641 7.7625C42.8108 6.51004 42.8436 5.40601 42.8623 4.45042Z" fill="white"/>
<path d="M56.7748 18.7007C56.4101 19.1182 55.9146 19.378 55.2882 19.48C55.0544 19.5264 54.7739 19.5542 54.4467 19.5635H54.0119L53.5772 19.5774C53.5117 19.095 53.493 18.427 53.5211 17.5735L53.5491 17.0586L53.5772 16.5437C53.5865 16.154 53.5865 15.82 53.5772 15.5417C53.5398 14.4655 53.5304 13.0461 53.5491 11.2833L53.5772 10.1839L53.5912 9.09847C53.6005 8.18927 53.6099 7.50273 53.6192 7.03885V6.38479L53.6052 5.73072C53.6052 5.2019 53.6145 4.76586 53.6332 4.42259C55.0451 4.49681 56.0689 4.96069 56.7047 5.81422C57.2189 6.51004 57.5228 7.54448 57.6163 8.91755C57.6443 9.34432 57.6537 9.83603 57.6443 10.3927C57.6443 10.6803 57.635 11.0467 57.6163 11.4921L57.6022 12.1044L57.5742 12.7306C57.5275 13.7883 57.5088 14.5629 57.5181 15.0546L57.5321 15.5278V16.0009C57.5321 16.3628 57.5134 16.6828 57.476 16.9612C57.3825 17.6941 57.1488 18.2739 56.7748 18.7007ZM60.7859 8.56965C60.7765 8.29132 60.7672 7.86919 60.7578 7.30326V6.6492L60.7438 5.99513C60.697 4.95605 60.5147 4.12107 60.1968 3.4902C59.5236 2.10785 58.3876 1.25432 56.7888 0.929603C55.8912 0.734775 54.7833 0.669832 53.465 0.734775L52.6515 0.776524L51.8241 0.818273C51.1883 0.855383 50.6273 0.860022 50.1411 0.832189C50.1411 0.832189 50.0523 0.82755 49.8746 0.818273C49.8279 1.54192 49.8232 2.40473 49.8606 3.4067L49.9307 4.71483L49.9728 5.3689L50.0149 5.99513C50.099 7.3311 50.1551 9.22835 50.1832 11.6869C50.1832 12.3178 50.1832 13.0971 50.1832 14.0248V15.2495V16.5019C50.1832 18.5523 50.1972 20.1526 50.2252 21.3031L50.2533 21.8736L50.2954 22.4581C50.3234 22.9498 50.3421 23.3302 50.3515 23.5992C50.5946 23.6085 50.9452 23.6271 51.4033 23.6549L51.9924 23.6967L52.6094 23.7245C53.6566 23.7802 54.5355 23.7894 55.2461 23.7523C57.3685 23.641 58.7944 23.0797 59.5236 22.0684C60.1314 21.2149 60.5334 20.148 60.7298 18.8677C60.8139 18.3667 60.87 17.7915 60.8981 17.1421L60.9121 16.2793L60.9261 15.4304V15.2912C60.9261 14.1222 60.9214 13.0043 60.9121 11.9374C60.884 10.62 60.842 9.4974 60.7859 8.56965Z" fill="white"/>
<path d="M74.7545 6.38479V5.24365C74.7638 4.24168 74.7451 3.48556 74.6984 2.9753L74.6844 2.55781V2.14032C74.6937 1.78777 74.6844 1.51409 74.6563 1.31926H71.2203C71.2857 1.77386 71.2904 3.2026 71.2343 5.60548C71.2249 5.97658 71.2156 6.43118 71.2062 6.96927L71.1922 7.60942C71.1829 7.85064 71.1782 8.04547 71.1782 8.19391C71.1595 9.05672 71.1501 9.59017 71.1501 9.79428C71.1875 11.3993 71.1829 13.5331 71.1361 16.1958V17.1699C71.1268 17.6152 71.094 17.9956 71.0379 18.311C70.879 19.2202 70.5284 19.7815 69.9861 19.9949C69.4251 20.2176 68.8688 20.0459 68.3171 19.48C67.859 19.0161 67.5505 18.478 67.3915 17.8657C67.2232 17.2163 67.1811 16.3489 67.2653 15.2634L67.3214 14.5954L67.3775 13.9274C67.4242 13.4079 67.4476 12.9811 67.4476 12.6471C67.4476 12.4801 67.4383 11.7565 67.4196 10.4762C67.4102 10.0587 67.4009 9.42318 67.3915 8.56965L67.3775 7.52592L67.3494 6.45437C67.2933 2.71553 67.27 0.846105 67.2793 0.846105H67.125L67.0549 0.860022H66.7324L65.4982 0.901771L63.717 0.971352C63.6983 1.43523 63.6937 2.01043 63.703 2.69697L63.7311 3.62936L63.7451 4.56175C63.7825 6.18532 63.7778 7.38676 63.7311 8.16607L63.6469 9.44637C63.4038 13.1203 63.3197 16.1355 63.3945 18.492C63.4225 19.429 63.6609 20.366 64.1097 21.3031C64.624 22.3885 65.2598 23.0751 66.0171 23.3627C66.4752 23.5297 67.0643 23.6456 67.7842 23.7106L68.247 23.7523L68.7098 23.7941C69.1025 23.8219 69.3971 23.8451 69.5934 23.8636C70.9491 24.0028 71.9963 23.8451 72.7349 23.3905C73.5016 22.9173 74.0673 22.0406 74.4319 20.7603C74.8059 19.4893 74.9555 17.8565 74.8807 15.8618L74.8106 14.6232L74.7405 13.3708C74.675 12.3595 74.647 11.5385 74.6563 10.9076C74.6563 10.6571 74.6704 10.3695 74.6984 10.0448L74.7685 9.2098C74.8246 8.51398 74.8386 7.95269 74.8106 7.52592C74.7825 7.19193 74.7638 6.81156 74.7545 6.38479Z" fill="white"/>
<path d="M82.6364 19.6053C82.2718 19.6053 81.8136 19.5682 81.262 19.4939C81.262 18.6218 81.276 17.5317 81.304 16.2236L81.3461 14.5815L81.3742 12.9254C81.4209 10.2814 81.4022 8.09649 81.3181 6.37087C81.3181 6.29665 81.3087 5.99977 81.29 5.48023L81.276 5.11841L81.262 4.71483C81.2526 4.3994 81.2433 4.12107 81.2339 3.87986C81.1872 2.42328 81.1591 1.695 81.1498 1.695C79.8221 1.63933 78.5459 1.63933 77.321 1.695C77.2369 3.57834 77.2088 5.85597 77.2369 8.5279L77.293 11.9652L77.3491 15.3886C77.3584 15.8154 77.3491 16.3349 77.321 16.9473L77.293 17.7266L77.2649 18.492C77.2182 19.7537 77.2462 20.7928 77.3491 21.6092C77.3771 21.8319 77.4005 22.1612 77.4192 22.5973L77.4472 23.0983L77.4893 23.5853C77.9101 23.6132 78.5272 23.5853 79.3406 23.5018L80.2943 23.4183C80.6496 23.3905 80.9628 23.3812 81.2339 23.3905C83.4218 23.4091 85.1188 23.3951 86.3249 23.3487C86.3156 23.3487 86.3015 22.7318 86.2828 21.4979C86.2735 21.2845 86.2688 21.0526 86.2688 20.8021C86.2688 20.6165 86.2641 20.4078 86.2548 20.1758C86.2454 19.7305 86.2408 19.4939 86.2408 19.4661C85.792 19.4475 85.1889 19.4661 84.4316 19.5218L83.534 19.5774C83.188 19.596 82.8888 19.6053 82.6364 19.6053Z" fill="white"/>
<path d="M92.3415 4.45042C94.5013 4.47826 96.03 4.47362 96.9276 4.43651L96.9837 3.68503L97.0258 2.94747C97.0632 2.39081 97.0725 1.88983 97.0538 1.44451C97.0538 1.42595 96.8622 1.4074 96.4788 1.38884C96.3573 1.38884 96.217 1.3842 96.0581 1.37492C96.002 1.37492 95.9459 1.37492 95.8898 1.37492C95.8524 1.37492 95.8196 1.37492 95.7916 1.37492C95.2306 1.35637 94.5995 1.33781 93.8983 1.31926C93.1222 1.3007 92.4864 1.29143 91.9909 1.29143L91.4299 1.31926L90.8549 1.34709C90.3687 1.3842 89.9947 1.40276 89.7329 1.40276C89.2561 1.39348 88.9569 1.41203 88.8353 1.45842C88.6109 1.56047 88.4941 1.80633 88.4847 2.19599C88.466 2.81758 88.466 3.5505 88.4847 4.39476L88.5268 5.50806L88.5548 6.60745C88.5922 7.97125 88.5876 9.87314 88.5408 12.3131C88.466 15.7829 88.4239 18.7517 88.4146 21.2196L88.4286 21.7901L88.4426 22.3746C88.4613 22.8663 88.466 23.2467 88.4567 23.5157C89.5599 23.5807 90.5697 23.576 91.486 23.5018C92.0189 23.4647 92.7763 23.4925 93.758 23.5853L94.333 23.6271L94.908 23.6827C95.3288 23.7106 95.7028 23.7198 96.03 23.7106C96.6004 23.692 96.9229 23.6132 96.9977 23.474C97.0164 23.4369 97.0071 23.089 96.9697 22.4303C96.9603 22.2447 96.9603 22.0313 96.9697 21.7901L97.0117 21.1639C97.0398 20.598 97.0491 20.1712 97.0398 19.8836C96.4227 19.8094 95.5953 19.814 94.5574 19.8975L93.9123 19.9532L93.2812 20.0088C92.7856 20.0552 92.3836 20.0831 92.075 20.0923C91.9254 19.4986 91.86 18.7471 91.8787 17.8379L91.8927 17.2534L91.9208 16.6828C91.9395 16.2097 91.9488 15.834 91.9488 15.5556C91.9488 14.7114 91.9582 13.8949 91.9769 13.1064C92.3602 13.0692 92.7342 13.0507 93.0988 13.0507C93.2391 13.0507 93.3934 13.0507 93.5617 13.0507L93.9964 13.0646C94.7444 13.0832 95.4083 13.06 95.9879 12.995C96.016 12.6239 96.0207 12.1508 96.002 11.5756L95.9879 11.2277L95.9739 10.8798C95.9739 10.62 95.9786 10.3695 95.9879 10.1283C95.1371 10.1004 93.8422 10.1236 92.1031 10.1979C92.1124 10.003 92.1265 9.78964 92.1452 9.5577L92.1732 8.98714C92.2013 8.51398 92.2246 8.10577 92.2433 7.7625C92.2901 6.51004 92.3228 5.40601 92.3415 4.45042Z" fill="white"/>
<path d="M107.628 12.508L107.18 11.8678C106.824 11.3761 106.488 10.9725 106.17 10.6571L105.931 10.4205C104.847 9.4371 104.047 8.54645 103.533 7.74859C103.056 7.00638 103.056 6.44509 103.533 6.06471C103.804 5.84205 104.104 5.74928 104.431 5.78639C104.749 5.83278 105.02 5.99977 105.244 6.28737C105.478 6.59353 105.623 6.98783 105.679 7.47026C105.707 7.6187 105.726 7.82744 105.735 8.09649L105.749 8.41657L105.777 8.72273C106.151 8.732 106.6 8.73664 107.124 8.73664H108.484C108.727 8.72736 108.872 8.69489 108.919 8.63923C108.965 8.58356 108.989 8.43048 108.989 8.17999C108.998 7.62334 109.003 7.19193 109.003 6.88578C108.994 6.40334 108.97 5.9673 108.933 5.57764C108.839 4.58495 108.624 3.74997 108.288 3.07271C108.054 2.581 107.713 2.20062 107.264 1.93158C106.927 1.72747 106.436 1.54192 105.791 1.37492C104.894 1.14299 104.01 1.03629 103.141 1.05485C102.112 1.0734 101.257 1.27287 100.574 1.65325C100.013 1.95941 99.6016 2.4604 99.3399 3.15621C99.1435 3.68503 99.0313 4.33909 99.0033 5.11841C98.9659 5.97194 98.9939 6.73733 99.0874 7.41459C99.1903 8.26813 99.396 8.99177 99.7045 9.58554L100.027 10.2257L100.35 10.8658C100.602 11.3483 100.855 11.7518 101.107 12.0766C101.387 12.4569 101.85 12.9254 102.495 13.4821L102.902 13.83L103.323 14.1779C103.641 14.4562 103.907 14.6975 104.122 14.9016C105.356 16.0984 105.889 17.2766 105.721 18.4363C105.702 18.5847 105.674 18.7332 105.637 18.8816C105.6 19.0579 105.553 19.2249 105.497 19.3826C105.356 19.7815 105.179 20.0413 104.964 20.1619C104.711 20.3196 104.407 20.315 104.052 20.148C103.725 19.9996 103.491 19.7908 103.351 19.5218C103.22 19.262 103.131 18.9558 103.084 18.6033C103.075 18.4641 103.066 18.3064 103.056 18.1301V17.657V17.5178L103.07 17.3647C103.08 17.2256 103.084 17.1189 103.084 17.0447C103.075 16.7756 103.01 16.6086 102.888 16.5437C102.767 16.4787 102.523 16.4555 102.159 16.4741L101.934 16.488L101.724 16.5019C101.556 16.5112 101.444 16.5205 101.387 16.5298H100.967L100.532 16.5158C100.186 16.5158 99.9008 16.5298 99.6764 16.5576C99.5923 16.5669 99.6016 17.2256 99.7045 18.5337C99.7232 18.7656 99.7419 19.0161 99.7606 19.2852C99.7793 19.4893 99.8027 19.712 99.8307 19.9532C99.8775 20.4727 99.9008 20.7418 99.9008 20.7603C99.9382 21.3448 100.064 21.8829 100.28 22.3746C100.532 22.9684 100.873 23.3812 101.303 23.6132C102.575 24.309 103.79 24.6244 104.95 24.5595L105.399 24.5455L105.861 24.5177C106.207 24.4899 106.511 24.4528 106.773 24.4064C107.446 24.2858 108.002 24.0492 108.442 23.6967C108.732 23.4647 108.994 23.0519 109.227 22.4581C109.405 22.0128 109.55 21.535 109.662 21.0247C109.802 20.3104 109.849 19.4615 109.802 18.478C109.756 17.7358 109.653 16.8916 109.494 15.9453C109.372 15.268 108.9 14.3403 108.077 13.162L107.628 12.508Z" fill="white"/>
</svg>
