<svg width="71" height="25" viewBox="0 0 71 25" fill="none" xmlns="http://www.w3.org/2000/svg">
<path d="M12.7068 23.3608L13.2613 23.3325L13.8159 23.3042C13.8343 23.3042 13.9453 23.3136 14.1486 23.3325C14.2595 23.3419 14.3519 23.3514 14.4259 23.3608L14.7309 23.375C15.2669 23.4033 15.5488 23.3703 15.5765 23.2758C15.6505 21.6323 15.863 19.5213 16.2142 16.9427L16.4361 15.37L16.6579 13.7973C16.8242 12.5883 16.949 11.5352 17.0322 10.6379C17.0876 10.0711 17.1616 9.43829 17.254 8.73933L17.4897 6.8408C17.7115 5.16896 17.864 3.89855 17.9472 3.02957C17.9657 2.869 17.9934 2.67537 18.0304 2.44868L18.1274 1.86779C18.2198 1.36718 18.2707 0.970473 18.2799 0.677665C18.2799 0.639883 18.0396 0.630438 17.559 0.649329C17.4019 0.649329 17.2263 0.658774 17.0322 0.677665H16.8381L16.7826 0.691833H16.7411C16.4915 0.710724 16.1357 0.720169 15.6736 0.720169H15.1329L14.5922 0.734337C14.509 2.47229 14.2641 4.13469 13.8575 5.72152C13.4138 7.47836 13.021 9.84916 12.6791 12.8339C12.6698 12.9 12.6513 12.8953 12.6236 12.8197C12.6051 12.7631 12.5774 12.6639 12.5404 12.5222C12.5219 12.4089 12.4988 12.2861 12.4711 12.1538C12.4619 12.1066 12.4572 12.0641 12.4572 12.0263L12.4434 11.9838C12.4157 11.8894 12.3926 11.7146 12.3741 11.4596L12.3602 11.1479C12.351 11.0346 12.3463 10.9496 12.3463 10.8929C12.2816 10.3167 12.1938 9.61775 12.0829 8.796L11.8195 6.89747L11.5423 4.99894C11.4498 4.27164 11.3713 3.62936 11.3066 3.07208L11.2511 2.53369L11.1957 1.96696C11.1402 1.55137 11.0617 1.19244 10.96 0.890187C10.8121 0.86185 10.5764 0.86185 10.253 0.890187L9.87865 0.918523C9.74001 0.918523 9.61986 0.9138 9.5182 0.904355L9.33797 0.890187L9.15775 0.876019L8.78343 0.833514C8.48768 0.814623 8.24738 0.833514 8.06254 0.890187L8.00708 1.25856L7.93776 1.6411L7.88231 1.78278L7.81299 1.93863C7.76678 2.06142 7.73906 2.16059 7.72981 2.23616L7.64663 3.15709L7.53572 4.07801C7.32315 6.05211 7.12906 7.60115 6.95346 8.72516C6.68543 10.4537 6.37582 11.9744 6.02461 13.2873C5.87673 12.9567 5.77969 12.4561 5.73348 11.7855L5.70575 11.3746L5.69189 10.9779C5.6734 10.6567 5.6503 10.4017 5.62257 10.2128C5.53015 9.64609 5.39613 8.96602 5.22053 8.1726L4.98485 7.16666L4.74917 6.16073C4.66599 5.79236 4.60592 5.36259 4.56895 4.87143L4.52736 4.20553L4.51349 3.53963C4.46728 2.39673 4.361 1.54192 4.19463 0.975195L3.57078 0.946859L2.9192 0.904355C2.40163 0.885464 1.97648 0.871296 1.64376 0.86185H1.01991C0.770363 0.86185 0.557791 0.876019 0.382187 0.904355C0.382187 1.07437 0.414535 1.30106 0.479231 1.58442L0.548548 1.93863C0.585517 2.07086 0.608623 2.17949 0.617865 2.26449L0.853544 3.6388C1.12157 5.18785 1.38498 6.8408 1.64376 8.59764C1.88406 10.2317 2.1105 11.8894 2.32307 13.5707C2.45246 14.5435 2.64655 15.8234 2.90533 17.4102L3.21033 19.3229L3.50146 21.2498C3.51995 21.3348 3.53381 21.4434 3.54305 21.5756L3.57078 21.9157C3.58926 22.2179 3.61237 22.4446 3.6401 22.5957C3.72328 23.0775 3.89888 23.3325 4.16691 23.3608C4.44418 23.3797 4.80925 23.3797 5.26212 23.3608L5.81666 23.3325L6.35733 23.3042C6.38506 23.3042 6.50059 23.3136 6.70392 23.3325C6.81483 23.3419 6.90725 23.3514 6.98119 23.3608L7.28618 23.375C7.82224 23.4033 8.10413 23.3703 8.13185 23.2758C8.20579 21.689 8.39988 19.7196 8.71412 17.3677L8.92207 15.8942L9.11616 14.4349C9.28252 13.2731 9.40729 12.2908 9.49047 11.4879L9.7816 13.5707C9.90175 14.5435 10.0912 15.8234 10.35 17.4102L10.655 19.3229L10.9461 21.2498C10.9646 21.3348 10.9785 21.4434 10.9877 21.5756L11.0154 21.9157C11.0432 22.2179 11.0663 22.4446 11.0848 22.5957C11.1679 23.0775 11.3436 23.3325 11.6116 23.3608C11.8981 23.3797 12.2632 23.3797 12.7068 23.3608Z" fill="white"/>
<path d="M27 10.2411C27 11.214 26.963 12.3805 26.8891 13.7407C26.8429 14.6474 26.7643 15.8092 26.6534 17.226L26.6257 17.7928L26.598 18.3595C26.561 18.7845 26.4963 19.1151 26.4039 19.3512C26.1728 19.9841 25.6552 20.2013 24.8512 20.003C23.8438 19.7668 23.2707 19.0584 23.1321 17.8778C23.0859 17.4905 23.0813 16.9616 23.1182 16.2909L23.146 15.8942L23.1737 15.4975C23.1922 15.1953 23.2014 14.945 23.2014 14.7466C23.2014 14.4727 23.206 14.1327 23.2153 13.7265V12.6214C23.2153 11.658 23.2153 10.9496 23.2153 10.4962C23.2245 10.2034 23.1968 9.68859 23.1321 8.95185L23.0905 8.49847L23.0628 8.04509C23.0351 7.69561 23.0212 7.38391 23.0212 7.10999C22.975 5.57983 23.1968 4.51723 23.6866 3.92216C24.1025 3.40267 24.7125 3.2846 25.5166 3.56796C26.1728 3.79465 26.6026 4.16775 26.8059 4.68724C27.0555 5.32009 27.1664 6.22685 27.1386 7.40752L27.1109 8.15843L27.0555 8.88101C27.0277 9.48551 27.0092 9.93889 27 10.2411ZM29.1766 1.41441C28.8254 0.857128 28.3355 0.474588 27.707 0.266789C27.2726 0.125108 26.658 0.0400994 25.8632 0.0117632C24.7911 -0.0165731 23.8853 0.0778811 23.146 0.295126C22.1478 0.587933 21.3899 1.1216 20.8724 1.89612C20.4565 2.51008 20.2254 3.47351 20.1792 4.78642C20.1607 5.18313 20.1607 5.73096 20.1792 6.42992V6.82663L20.1931 7.195C20.1931 7.46892 20.1884 7.70033 20.1792 7.88924V7.90341L20.1515 8.89517L20.1099 9.88694L20.0544 11.8563C20.0174 13.3581 20.0221 14.6758 20.0683 15.8092L20.1376 16.971L20.2069 18.1186C20.2716 19.0537 20.304 19.8188 20.304 20.4139C20.304 21.16 20.6043 21.8212 21.2051 22.3974C21.7134 22.8791 22.3465 23.2239 23.1044 23.4317C23.9547 23.6772 24.7772 23.8048 25.5721 23.8142C26.4686 23.8237 27.2819 23.6206 28.012 23.205C28.8716 22.7327 29.3938 22.0715 29.5786 21.2214C29.7172 20.5792 29.8328 19.6252 29.9252 18.3595C29.9529 17.9911 29.9899 17.396 30.0361 16.5743L30.0638 16.0926L30.0916 15.6109C30.11 15.2425 30.1285 14.9072 30.147 14.6049C30.2302 13.3298 30.2579 11.9083 30.2302 10.3403C30.2209 9.74526 30.2025 9.03686 30.1747 8.2151L30.1193 7.1525L30.0777 6.06155V5.79236L30.0638 5.49483L30.0222 4.89976C29.9945 4.43694 29.9529 4.02134 29.8975 3.65297C29.7588 2.69898 29.5185 1.9528 29.1766 1.41441Z" fill="white"/>
<path d="M39.6019 8.71099C39.5464 9.72165 39.2692 10.2978 38.7701 10.4395C38.576 10.4867 38.2802 10.4962 37.8828 10.4678L37.6194 10.4537L37.3283 10.4253C37.088 10.397 36.88 10.3828 36.7044 10.3828C36.6952 10.1561 36.709 9.86333 36.746 9.5044L36.7737 9.07936L36.8015 8.64015L36.8292 7.60588L36.8569 6.58577C36.8662 5.83958 36.8662 5.15951 36.8569 4.54556L36.8153 3.61047C37.148 3.59158 37.4946 3.60102 37.8551 3.6388C38.502 3.70492 38.9549 3.98828 39.2137 4.48889C39.3893 4.81948 39.5141 5.37676 39.588 6.16073C39.6157 6.43464 39.6296 6.83607 39.6296 7.36502C39.6296 7.87507 39.6204 8.32373 39.6019 8.71099ZM43.2341 15.3842C43.1694 14.5624 42.9846 13.9343 42.6796 13.4998C42.6056 13.3959 42.4947 13.2731 42.3468 13.1314C42.1805 12.9709 42.0095 12.8245 41.8339 12.6922C41.381 12.3428 41.0437 12.1963 40.8219 12.253C41.5428 12.0547 42.0881 11.7146 42.4577 11.2329C42.7812 10.8173 43.0585 10.0522 43.2895 8.93768C43.3727 8.52208 43.4513 8.07342 43.5252 7.59171C43.5714 7.23278 43.613 6.86913 43.65 6.50076C43.7147 5.87737 43.6361 5.16896 43.4143 4.37554C43.1925 3.60102 42.8829 2.92567 42.4855 2.3495C41.894 1.48997 41.3256 0.923246 40.7803 0.649329C40.2904 0.403748 39.5372 0.271512 38.5205 0.252621C38.4466 0.252621 38.0723 0.271512 37.3976 0.309294L37.1758 0.309294L36.9262 0.323462L36.4271 0.351798C36.0205 0.361243 35.6554 0.375412 35.3319 0.394302C33.428 0.46042 32.4807 0.446252 32.4899 0.351798C32.4345 1.5797 32.4206 3.21848 32.4483 5.26814L32.4622 6.5291L32.4761 7.77589C32.4945 8.75822 32.5038 9.56108 32.5038 10.1845C32.5038 10.7418 32.5084 11.3463 32.5177 11.998V12.8481L32.5315 13.6982C32.55 15.1811 32.5592 16.3523 32.5592 17.2119C32.5592 17.6275 32.5685 18.095 32.587 18.6145L32.6563 20.0172C32.721 21.2451 32.7487 22.1802 32.7395 22.8224C33.904 22.9641 35.2395 22.9877 36.746 22.8933C36.8107 22.8933 36.8292 21.8212 36.8015 19.6771C36.7922 19.3087 36.783 18.8459 36.7737 18.2886L36.7599 17.5802L36.746 16.8718C36.7183 15.7289 36.7044 14.8741 36.7044 14.3074C37.5362 14.3546 38.0954 14.4491 38.3819 14.5908C38.807 14.808 39.1629 15.2708 39.4494 15.9792C39.5603 16.2626 39.5973 16.7065 39.5603 17.311L39.5326 17.7077L39.5048 18.147C39.4679 18.5153 39.4448 18.8223 39.4355 19.0679C39.3801 20.7208 39.7544 22.0668 40.5585 23.1058C41.6675 23.1625 42.8783 23.1672 44.1907 23.12L44.5789 23.1058C44.5049 22.8602 44.3386 22.3879 44.0798 21.689L43.9273 21.2923L43.7748 20.8956C43.6731 20.6122 43.5945 20.395 43.5391 20.2438C43.2803 19.4693 43.1648 18.6712 43.1925 17.8494L43.2202 17.311L43.2341 17.0277L43.248 16.7443C43.2664 16.2626 43.2618 15.8092 43.2341 15.3842Z" fill="white"/>
<path d="M51.4828 13.8398C51.4366 13.9249 51.5198 14.3641 51.7324 15.1575C51.8156 15.4597 51.8987 15.762 51.9819 16.0642C52.0651 16.3476 52.1252 16.5412 52.1622 16.6451C52.2638 16.9285 52.3932 17.2591 52.5503 17.6369L52.9524 18.6145C53.2943 19.4363 53.5485 20.0974 53.7149 20.598C53.7611 20.7586 53.8119 20.9522 53.8674 21.1789L54.006 21.774C54.1261 22.2652 54.2463 22.643 54.3664 22.9074C54.9579 22.9358 55.6465 22.9405 56.4321 22.9216L57.4719 22.8791L58.5116 22.8366C58.5393 22.5532 58.4746 22.2274 58.3175 21.859C58.2713 21.7457 58.1974 21.5945 58.0957 21.4056L57.9848 21.1789L57.8878 20.9522L57.8046 20.7681C57.4441 19.8235 57.0975 18.8554 56.7648 17.8636C56.1271 16.0028 55.4339 14.0854 54.6853 12.1113L54.5328 11.743L54.3803 11.3746C54.2417 11.0535 54.1354 10.7984 54.0614 10.6095C53.8489 10.005 53.7842 9.49496 53.8674 9.07936C53.9505 8.63543 54.1862 8.09231 54.5744 7.45003L54.8239 7.05332L55.0735 6.67078C55.2768 6.35908 55.4247 6.1135 55.5171 5.93404C55.665 5.66957 56.1086 4.72975 56.848 3.11458C57.5874 1.48053 57.9432 0.663497 57.9155 0.663497L57.0282 0.606824C56.6863 0.587933 56.3951 0.578488 56.1548 0.578488C55.97 0.587933 55.6835 0.583211 55.2953 0.56432L54.8655 0.535984H54.4496C54.3387 0.535984 54.2602 0.578488 54.2139 0.663497C54.1955 0.691833 54.177 0.734337 54.1585 0.79101L54.103 0.946859C54.0753 1.00353 54.043 1.09326 54.006 1.21605L53.9644 1.34357L53.9228 1.47108L53.7149 1.91029L53.5069 2.3495L52.7306 4.2622C52.4348 4.99894 52.1668 5.63178 51.9265 6.16073C51.2888 7.57754 50.6557 8.796 50.0272 9.8161C50.0272 9.5044 50.0457 9.14548 50.0826 8.73933L50.1935 7.67672C50.286 6.7794 50.3183 6.06627 50.2906 5.53733C50.2813 5.46177 50.2721 5.15951 50.2629 4.63057L50.249 4.2622L50.2351 3.85132C50.2259 3.52073 50.2167 3.23737 50.2074 3.00124C50.1704 1.51831 50.1427 0.776842 50.1242 0.776842C48.8211 0.720169 47.5595 0.715447 46.3395 0.762674C46.2656 2.33061 46.2378 4.27165 46.2563 6.58577L46.2841 9.5044C46.2933 10.6945 46.2979 11.6674 46.2979 12.423C46.2979 12.9709 46.2841 13.7171 46.2563 14.6616L46.2009 16.7727C46.1824 17.5661 46.1824 18.2697 46.2009 18.8837C46.2194 19.7716 46.2609 20.4894 46.3256 21.0373C46.3441 21.1695 46.3672 21.5048 46.395 22.0432L46.4088 22.3549L46.4227 22.6383C46.4319 22.8366 46.4412 22.9688 46.4504 23.035C46.4504 23.0727 46.455 23.0869 46.4643 23.0775L46.4781 23.0491L46.492 23.035C46.6029 23.0539 46.7323 23.0633 46.8802 23.0633C47.0003 23.0539 47.1343 23.0444 47.2822 23.035C47.7628 23.0066 48.3543 23.0113 49.0567 23.0491H49.3063L49.3617 23.035C49.4357 23.0255 49.5327 23.0302 49.6529 23.0491C49.8192 23.068 50.0364 23.0727 50.3045 23.0633V22.5249C50.3045 22.3832 50.3137 22.199 50.3322 21.9724L50.3599 21.4198C50.3691 21.2876 50.3507 21.1175 50.3045 20.9097L50.2351 20.6547L50.2074 20.3997C50.1889 20.2675 50.1797 20.121 50.1797 19.9605L50.1935 19.748V19.5213C50.2028 19.2379 50.2028 18.9026 50.1935 18.5153L50.152 17.5236C50.1427 17.2969 50.1473 17.023 50.1658 16.7018L50.1935 16.3051L50.2074 15.8942L50.4708 15.5117L50.7204 15.1291C50.9237 14.8269 51.0762 14.5813 51.1779 14.3924L51.4828 13.8398Z" fill="white"/>
<path d="M68.216 11.7288L67.7724 11.0771C67.4212 10.5765 67.0885 10.1656 66.7742 9.84444L66.5385 9.60358C65.4664 8.60237 64.6762 7.69561 64.1679 6.8833C63.6965 6.12767 63.6965 5.55622 64.1679 5.16896C64.4359 4.94227 64.7317 4.84782 65.0552 4.8856C65.3694 4.93282 65.6374 5.10284 65.8592 5.39565C66.0903 5.70735 66.2336 6.10878 66.289 6.59994C66.3167 6.75107 66.3352 6.96359 66.3445 7.2375L66.3583 7.56337L66.386 7.87507C66.7557 7.88452 67.1994 7.88924 67.7169 7.88924H69.0617C69.302 7.87979 69.4453 7.84673 69.4915 7.79006C69.5377 7.73339 69.5608 7.57754 69.5608 7.32251C69.57 6.75579 69.5746 6.31658 69.5746 6.00488C69.5654 5.51372 69.5423 5.06978 69.5053 4.67308C69.4129 3.66242 69.2003 2.81233 68.8676 2.12281C68.6365 1.62221 68.2992 1.23494 67.8556 0.961027C67.5229 0.753228 67.0376 0.56432 66.3999 0.394302C65.5127 0.158167 64.6393 0.0495448 63.7797 0.0684357C62.7631 0.0873265 61.9174 0.290403 61.2427 0.677665C60.6882 0.989364 60.2815 1.49942 60.0227 2.20782C59.8286 2.74621 59.7177 3.41211 59.69 4.20553C59.653 5.07451 59.6808 5.85375 59.7732 6.54327C59.8749 7.41225 60.0782 8.14899 60.3832 8.75349L60.702 9.40523L61.0209 10.057C61.2704 10.5481 61.52 10.959 61.7695 11.2896C62.0468 11.6768 62.5043 12.1538 63.142 12.7206L63.544 13.0748L63.9599 13.429C64.2742 13.7123 64.5376 13.9579 64.7502 14.1657C65.9701 15.3842 66.497 16.5837 66.3306 17.7644C66.3121 17.9155 66.2844 18.0667 66.2474 18.2178C66.2104 18.3973 66.1642 18.5673 66.1088 18.7279C65.9701 19.134 65.7945 19.3985 65.582 19.5213C65.3324 19.6818 65.0321 19.6771 64.6808 19.5071C64.3574 19.356 64.1263 19.1434 63.9877 18.8695C63.8583 18.6051 63.7705 18.2934 63.7243 17.9344C63.715 17.7928 63.7058 17.6322 63.6965 17.4527V16.971V16.8293L63.7104 16.6735C63.7196 16.5318 63.7243 16.4232 63.7243 16.3476C63.715 16.0737 63.6503 15.9037 63.5302 15.8376C63.41 15.7714 63.1697 15.7478 62.8093 15.7667L62.5875 15.7809L62.3795 15.7951C62.2132 15.8045 62.1022 15.8139 62.0468 15.8234H61.6309L61.2011 15.8092C60.8592 15.8092 60.5773 15.8234 60.3555 15.8517C60.2723 15.8612 60.2815 16.5318 60.3832 17.8636C60.4017 18.0997 60.4201 18.3548 60.4386 18.6287C60.4571 18.8365 60.4802 19.0632 60.5079 19.3087C60.5542 19.8377 60.5773 20.1116 60.5773 20.1305C60.6142 20.7256 60.739 21.2734 60.9516 21.774C61.2011 22.3785 61.5385 22.7988 61.9636 23.035C63.2206 23.7434 64.4221 24.0645 65.5681 23.9984L66.0117 23.9842L66.4692 23.9559C66.8112 23.9276 67.1116 23.8898 67.3704 23.8425C68.0358 23.7198 68.5857 23.4789 69.0201 23.12C69.3066 22.8838 69.5654 22.4635 69.7965 21.859C69.9721 21.4056 70.1153 20.9192 70.2262 20.3997C70.3649 19.6724 70.4111 18.8081 70.3649 17.8069C70.3186 17.0513 70.217 16.1918 70.0599 15.2283C69.9397 14.5388 69.473 13.5943 68.6597 12.3947L68.216 11.7288Z" fill="white"/>
</svg>
